
<global>
amp_veltrack=0
ampeg_attack=0.01
ampeg_release=0.35
</global>

<group>
group_label=PP
lpc_hicc1=42
lpc_locc1=0

<region>
hivel=127
key=A#3
loop_end=251653
loop_mode=loop_continuous
loop_start=55844
loop_xfade=23726
lovel=0
lpc=Jiy0QnyEO8NLbgJDi1pJws1RZEEsnQ4/BwJHwWtFZ0ESfqZBYK6Gwfw8KsHqs6BBn1XvwFfNi8G6uC5BDP0UQdEZ2sD1eD/A+Nt3QDG9wMADm5pAF1K5QAN8l8G9VU1B
lpc_rms=-28.95
sample=Clarinet_sustain_PP_A#3.opus
</region>

<region>
hivel=127
key=A#4
loop_end=272011
loop_mode=loop_continuous
loop_start=60362
loop_xfade=25646
lovel=0
lpc=xMBNQxuDBcRx9fRD264sw95W20H2xPvBMjhcQRWvOEFQSCFCHlCiwgkVjkESYBZCIIvkwYa+tsEvizxCTldHQbN9GsLXgpbA1Sv+QekPWsFuQAjAL+jcwZTzJ0J1R0XB
lpc_rms=-18.67
sample=Clarinet_sustain_PP_A#4.opus
</region>

<region>
hivel=127
key=A#5
loop_end=258109
loop_mode=loop_continuous
loop_start=57277
loop_xfade=24335
lovel=0
lpc=K/kXQ81eisNpr1pDoH9Cwo2oCMJp6KVBZVPQQKh6Zr8EegpBEja7wcxU40Fo0K2+5z9iwZ4MvL4Y0OJBsZZwwaH8CMGXFjdBwZpeQawcPcFOBgzBgy47QRZrDkJ2F0vC
lpc_rms=-22.70
sample=Clarinet_sustain_PP_A#5.opus
</region>

<region>
hivel=127
key=A3
loop_end=273518
loop_mode=loop_continuous
loop_start=60696
loop_xfade=25788
lovel=0
lpc=cRC2Qt3YUMOmZR1DJ6NYwn2bfUElvJG/s+rCwMUwY0ApSsRB7Ih1wSy4n8E4Ro9B1956v1uskcECDFRBhRfMQEEfosD+8qs/2ZP1QJ9tDcGJOQY+hPEBQYxty8Ec+4pB
lpc_rms=-27.17
sample=Clarinet_sustain_PP_A3.opus
</region>

<region>
hivel=127
key=A4
loop_end=269470
loop_mode=loop_continuous
loop_start=59798
loop_xfade=25406
lovel=0
lpc=hxV/Q6XRHsTkFQJEkxUYwwtEK0EH/9O+qSY0QljQEsJhRwNCcz+IwsznEkBKjxFCCdmUwUnE58Ban6xBCMMmQlZ6GcIUmbLBvpqcQf6CfcBTYK3AoOS5QBArnL5SPUVA
lpc_rms=-17.38
sample=Clarinet_sustain_PP_A4.opus
</region>

<region>
hivel=127
key=A5
loop_end=251182
loop_mode=loop_continuous
loop_start=55740
loop_xfade=23682
lovel=0
lpc=Bo4DQ0UugsOHXFFDcKF9wnJ7f0AjFg5BKbC5wZ/fvEGxJWpBDy7pwfO6A0GBkM9BBcS/wSYah0AOfHFBVzMQv0fIh8FdLqNBpurBPdlihcDtjBjAcP+5vxBuHEJCYQvC
lpc_rms=-24.34
sample=Clarinet_sustain_PP_A5.opus
</region>

<region>
hivel=127
key=B3
loop_end=250612
loop_mode=loop_continuous
loop_start=55613
loop_xfade=23628
lovel=0
lpc=4VuaQpcAKsPzWQNDRvNXwhqQPED3MXVB6/IZwQQpU0G99QtAvQumv5cvusDBRpxAeOM9wXAGT7+Hsw1BPkNywHZAE8BViLdAUB5YQKJb2sAIY20+KN4ZQQVolsGOIy5B
lpc_rms=-28.84
sample=Clarinet_sustain_PP_B3.opus
</region>

<region>
hivel=127
key=B4
loop_end=268602
loop_mode=loop_continuous
loop_start=59605
loop_xfade=25324
lovel=0
lpc=FwuLQ28IH8RqH+tD9bX8wgCAaUJjjB/CDpaTv8KZKMEjZ4lC3u6Dwv6JqcGaYSZCLoQbwadv88F3BjBC0PXmQfrWNsJ53EnBvMMOQv4CgcGZqxXBzqzCQMRzkEAndV9A
lpc_rms=-18.28
sample=Clarinet_sustain_PP_B4.opus
</region>

<region>
hivel=127
key=B5
loop_end=272268
loop_mode=loop_continuous
loop_start=60419
loop_xfade=25670
lovel=0
lpc=rox/QzevBcSAFwpE522pw96lCkMVa+BBz1SAwmdF5cE+AR1DsSMMw6kLikKoHOtAcc4LwiLpRkLTSwjCC8GPQh89ksKl/MNB1qYFQiDER0HyrXbC8D3rQh8/BMONAkdC
lpc_rms=-14.17
sample=Clarinet_sustain_PP_B5.opus
</region>

<region>
hivel=127
key=C#4
loop_end=251765
loop_mode=loop_continuous
loop_start=55869
loop_xfade=23737
lovel=0
lpc=ojrHQsIKSMNCKg9Dip2VwvVF7kE+oIxBg6awwZzKY0An/pFBTfAewZpmzb+ocvlAaSSVwTdaPsERaIhBnG+vQIsZv8CXFrlAWWc4Pz6V88ClId5AVrQjQZsCscHXoypB
lpc_rms=-27.55
sample=Clarinet_sustain_PP_C#4.opus
</region>

<region>
hivel=127
key=C#5
loop_end=256753
loop_mode=loop_continuous
loop_start=56976
loop_xfade=24207
lovel=0
lpc=tQeqQfENVcKZtT9Cl2yAwTNRjD/xg9m/b00IQK5sIcCb+qxA1Ud5wEQluT8Jedg9XZuBwAraCUCoy7E/vfOqPxrfBMCYJ24+zvL1P5GpR8CFIg9Asas4QAhu+8CxtZdA
lpc_rms=-38.96
sample=Clarinet_sustain_PP_C#5.opus
</region>

<region>
hivel=127
key=C#6
loop_end=273584
loop_mode=loop_continuous
loop_start=60711
loop_xfade=25794
lovel=0
lpc=AoBXQv9OpcLbqItCYgzEwSp32UBqnqa/UmhRQTIdR8EDjIJBKmjawD4IK0GUTxvB8kqXQftAV8FMj0RB00RDv4pP4kCDYirBhVa2QbxWi8Ff4ZBB4soAwiPZr0HYYrTA
lpc_rms=-26.49
sample=Clarinet_sustain_PP_C#6.opus
</region>

<region>
hivel=127
key=C4
loop_end=256562
loop_mode=loop_continuous
loop_start=56934
loop_xfade=24189
lovel=0
lpc=zZ++QgPoWcP/tiJD+iOAwnQw5EHSVJdAnMWBwTFGvkBfAeJBpjjAwdMmvcAoJrNA4eL3wJXoYcEj9oVBrFSWQJAMQcBM36tA5O8wQKqAt8DTXaC/Qel8QZqKGMLcnbNB
lpc_rms=-27.29
sample=Clarinet_sustain_PP_C4.opus
</region>

<region>
hivel=127
key=C5
loop_end=265828
loop_mode=loop_continuous
loop_start=58990
loop_xfade=25063
lovel=0
lpc=wzfgQjZib8MToj5DklGcwuYlAEIAdNvAVuOBwc5zVD//ZQ5C1m33wfwEicB3kJ1BIdV1wHyvZ8HTx/RALjA3QWsUDME9jJLA2fyoQKBAoD/K9CFA0sH+P1lFAMFKydpA
lpc_rms=-25.87
sample=Clarinet_sustain_PP_C5.opus
</region>

<region>
hivel=127
key=C6
loop_end=264274
loop_mode=loop_continuous
loop_start=58645
loop_xfade=24916
lovel=0
lpc=hTb1QlOTZsNrtk5Dq3K2wvfx3kHAO4pBt9KywUpm0UEZjeRBU9dMwpB6b0LJPsLB1RuXQVr71kBjYhvBGkMmQod7J8LU2SVC9u4oQAki68C0BHBBevURQUspPcKSbC9C
lpc_rms=-21.65
sample=Clarinet_sustain_PP_C6.opus
</region>

<region>
hivel=127
key=D#3
loop_end=255483
loop_mode=loop_continuous
loop_start=56694
loop_xfade=24087
lovel=0
lpc=qwBPQqnBx8JIGzRCS+2WQCDOAEGNbFnBT3W0wGkO8kA2r8lAMz3jPyPssMAzoj3AoGXsP1Ne3L+lD4pA8/KXvqykk7/SRZO+pw9oPwmBiz9dKn2/atkkwCHInz9OaDM+
lpc_rms=-34.54
sample=Clarinet_sustain_PP_D#3.opus
</region>

<region>
hivel=127
key=D#4
loop_end=260845
loop_mode=loop_continuous
loop_start=57884
loop_xfade=24593
lovel=0
lpc=5RMBQhHOdsJlkxtCInAywQm/CL1rMiNA/EuNwPmcqUAMRAJAA9oPwBXPB7+qenE/8QPJv81AmsC6w4xAgFo8QBYydMCicDc/sLlIQKR4R8CGuu2/2tjcQE+17MCqxmhA
lpc_rms=-37.85
sample=Clarinet_sustain_PP_D#4.opus
</region>

<region>
hivel=127
key=D#5
loop_end=267679
loop_mode=loop_continuous
loop_start=59400
loop_xfade=25237
lovel=0
lpc=kuMMQ07UnsNMIoRDYgWtwqSjhUEn6OjBssHUQc9cYkBtVwpBPlTfwW6X00Hlv8LB+ALXQXjI6sGnZv5AiB3KQSVnj8H0thhBxNFCQIrwjcE1AYhB+RXHQerSkcIVpEhC
lpc_rms=-21.90
offset=9222
sample=Clarinet_sustain_PP_D#5.opus
</region>

<region>
hikey=D3
hivel=127
lokey=C#3
loop_end=269370
loop_mode=loop_continuous
loop_start=59776
loop_xfade=25397
lovel=0
lpc=1TevQgtwI8Ol3IZC/4oAQVbIQ0FaDanBC1xhwANwvkBh60pB6OkBP0KZwcD482K/jhsIP+X5C0CFAhRAkU5KP3mWbcDhex/AICIEQFhsmj+4yLy/kl8+wK7VW8Ak7LdA
lpc_rms=-32.03
pitch_keycenter=D3
sample=Clarinet_sustain_PP_D3.opus
</region>

<region>
hivel=127
key=D4
loop_end=264656
loop_mode=loop_continuous
loop_start=58730
loop_xfade=24952
lovel=0
lpc=p7idQrbhJsNljcxC6RLIwRH0hEHtAyrAncjrvzOMZUBAS89ArOkXwXKqyMBYzqtAxn9mwP3DycCNeudAQEzQQKeWi7/tmQvAJm5BQHd9H8DEOuK/fz64QNxAncEiWGxB
lpc_rms=-30.08
sample=Clarinet_sustain_PP_D4.opus
</region>

<region>
hivel=127
key=D5
loop_end=272053
loop_mode=loop_continuous
loop_start=60371
loop_xfade=25650
lovel=0
lpc=U7XuQQYIR8JEBNRBy0eXwNsQTECCZHrAL1S1vgSauT9twcVAIEuOwBI3I8B+4zRAj2KZPE/mNcAZ0xVAf6VnQHpDBMCjh82/VDX5P6x6Yz4LINO+WIdLvnab/74RpB1A
lpc_rms=-41.18
sample=Clarinet_sustain_PP_D5.opus
</region>

<region>
hikey=G7
hivel=127
lokey=D6
loop_end=250203
loop_mode=loop_continuous
loop_start=55522
loop_xfade=23590
lovel=0
lpc=/CAoQ9wpk8O/MmpDDmK/whdtwUE8boJBcuaTwW99oUC2Wb1BCjuswR4qxkB/jrJBpiDuwZoKs0H/zp0/PbATQck/tsE7NdBBoUsDQCEJBsJzVevBflQnQqR92kCPMo7B
lpc_rms=-21.90
pitch_keycenter=D6
sample=Clarinet_sustain_PP_D6.opus
</region>

<region>
hivel=127
key=E3
loop_end=265873
loop_mode=loop_continuous
loop_start=59000
loop_xfade=25067
lovel=0
lpc=scpwQikP5MK8ojtCZwWfPvjqSUFGFunA+kDvPzKqSz/JsM9AOGazv0ivicCLTinA/4MDwAV2BcBCbGFA8c4AQCgOmr/Cesm//Ed/QGT2Er7FKADAAtUkvXwIj0CTW4TA
lpc_rms=-35.22
sample=Clarinet_sustain_PP_E3.opus
</region>

<region>
hivel=127
key=E4
loop_end=271082
loop_mode=loop_continuous
loop_start=60156
loop_xfade=25558
lovel=0
lpc=3MkVQyKsmcPA0jlD2SBFwkSmyUFPMG1ABB8JwVPlMkEl86FBvgK5wb5eH8F2qmG/8Ti7wP1gasHDXLdBe19oQRABLMDaEanAAZ8KQZeYfcEKeK6/gV91QRuIEcLPxd1B
lpc_rms=-24.95
sample=Clarinet_sustain_PP_E4.opus
</region>

<region>
hivel=127
key=E5
loop_end=279757
loop_mode=loop_continuous
loop_start=62081
loop_xfade=26376
lovel=0
lpc=uhZiQ2a22sNrxo1DNy6kwlHLIkIdrdnB+bzVQQ07AkAWJJNBROsGwuyktL8piRpBAWKNwAqTj79lalVBN1QEQZjAf7/LeipAe9iHQLpGrsGoliJAUwkTQQ3InUBQCAZB
lpc_rms=-20.67
offset=15846
sample=Clarinet_sustain_PP_E5.opus
</region>

<region>
hivel=127
key=F#3
loop_end=266577
loop_mode=loop_continuous
loop_start=59156
loop_xfade=25133
lovel=0
lpc=19lLQ4ruwMOVlkNDqyz6wZqgdEFZ1rzBlVqRQecN5kBKkaRB5f3NwNWzGsFxV5Y+4DOUwIafHsE2K/RAT2RPQWOA5b8JsjPBoOIRQUrswL+a/w7ACu4awaVh/cDWRoBB
lpc_rms=-23.74
sample=Clarinet_sustain_PP_F#3.opus
</region>

<region>
hivel=127
key=F#4
loop_end=267684
loop_mode=loop_continuous
loop_start=59402
loop_xfade=25238
lovel=0
lpc=L0v1QujEYMNOb+tCVzgFwgckCELuyrPAFScLwUHlk795zj1BO/sGPwyfMcHaKq7AjAavvuS/uMAic4lBgXc0P2xvrD7IBbXA4hGxQHYuLsBy9+/AJIlPQQsp3cGi4LxB
lpc_rms=-26.91
sample=Clarinet_sustain_PP_F#4.opus
</region>

<region>
hivel=127
key=F#5
loop_end=272878
loop_mode=loop_continuous
loop_start=60554
loop_xfade=25727
lovel=0
lpc=Or4xQ8hpmsPPVTFDjh4Kwv5DAEKDYQ/BL6qgwfsvhEF5PgtCBtIIwqlNW8BoO7xBOZGOwVbumL4rDc5BNTh9QdhbqsEmg82/ohi5QAT3UsBeWNhARpS6QPyy20DzYopA
lpc_rms=-24.20
sample=Clarinet_sustain_PP_F#5.opus
</region>

<region>
hivel=127
key=F3
loop_end=258837
loop_mode=loop_continuous
loop_start=57438
loop_xfade=24404
lovel=0
lpc=sK2YQt2SDMNaRIRCKtLzwAngKEEKdS3BSbueP4iq4UCZI9hARW5zwCuQk8A9ppW+yfOPwCA3lcAxIeVA5CZsQKsmC8Cl0VM+d3AcQLm8/D6+67e/6q4mwFVdQ8Ad5ZJA
lpc_rms=-31.86
sample=Clarinet_sustain_PP_F3.opus
</region>

<region>
hivel=127
key=F4
loop_end=263263
loop_mode=loop_continuous
loop_start=58421
loop_xfade=24821
lovel=0
lpc=zRMBQ8nlesMZjv9CfgS+wVDa/kGMXmbAbDMDwf2GO0CnAItBlZV3wTYlLMFqYYJAb3PHwNPfKMF2toRBPSc0QSaiAMDqUAXBrW7fQFMhEb+LxPvAnydrQMMBlsFrsJ5B
lpc_rms=-26.44
sample=Clarinet_sustain_PP_F4.opus
</region>

<region>
hivel=127
key=F5
loop_end=271798
loop_mode=loop_continuous
loop_start=60315
loop_xfade=25626
lovel=0
lpc=QtFgQ2yk58MkmrFDJnftwvJ2ckHtyHo/3Hn/QWFLKcBHtJo+SkEowmqOtkH6yLJB4KN3wd9SLsGVYaRBbL1JQdP1jUAdq5K+hCa5wTMm1cBD+IBBDV+CQeW858BosxRB
lpc_rms=-20.51
offset=3268
sample=Clarinet_sustain_PP_F5.opus
</region>

<region>
hivel=127
key=G#3
loop_end=261199
loop_mode=loop_continuous
loop_start=57962
loop_xfade=24626
lovel=0
lpc=QxE0Q7qwwMMdLlhDxoomwqsud0JYGz/BMK3kwU6uhsAsil5CplCAwSBMA8Ja1U7AGzUXwXU9bsGMggpC//61QcIXccF7qyDBkB9hQUxkdcCON9TA4c0MQdWQGcIw++ZB
lpc_rms=-23.80
sample=Clarinet_sustain_PP_G#3.opus
</region>

<region>
hivel=127
key=G#4
loop_end=270480
loop_mode=loop_continuous
loop_start=60022
loop_xfade=25501
lovel=0
lpc=zuWQQ60YAcRfpnZD3fQDwihRZEKeJe7B8E27wTucjEFx/yxCkaIqwX8pzsHnCD3BxEbHwEOGC8EpCxNBWheVQb5LYEDpeUS/jupAQW5pJcESIWLBr3QbQUL6DML+EjNC
lpc_rms=-20.85
sample=Clarinet_sustain_PP_G#4.opus
</region>

<region>
hivel=127
key=G#5
loop_end=253443
loop_mode=loop_continuous
loop_start=56241
loop_xfade=23895
lovel=0
lpc=rWiiQuSqScOpUUNDTFyYwklrkD/KBRjAnOFcQUQVDsExDWBBaM/fwczpkEEtyTxBLBalwZ1RMD+uDZtB2ktPwU+PqsCryB1BgcUTwMged8BonTVBZ77GwbFnEUKGBbDB
lpc_rms=-26.09
sample=Clarinet_sustain_PP_G#5.opus
</region>

<region>
hivel=127
key=G3
loop_end=256830
loop_mode=loop_continuous
loop_start=56993
loop_xfade=24214
lovel=0
lpc=g9omQ9Bkk8MYb/JCbzlrwYkuGUK/wynCjsiDQbunzkAXArBBkSuOP0Hgr8H4RatApYHEv+xigMGE6v9ALBVHQVVTb0CzkYTBrX4LQZJBGsAsuEg/RniIwLVtjMDPeQ5B
lpc_rms=-23.09
sample=Clarinet_sustain_PP_G3.opus
</region>

<region>
hivel=127
key=G4
loop_end=272062
loop_mode=loop_continuous
loop_start=60373
loop_xfade=25650
lovel=0
lpc=tzkXQ8NzkMMlThpDkx9nwXQ8y0HwTKbB5t0XwVRgEUArLl5Bo2+pv7Ajp8DHw77AVCzMv8sxVkAIw6lABextQCFjh79oMDXBHy8JQcOGsD5Te/PAHhziP+DMEsF5L49B
lpc_rms=-26.02
sample=Clarinet_sustain_PP_G4.opus
</region>

<region>
hivel=127
key=G5
loop_end=260617
loop_mode=loop_continuous
loop_start=57833
loop_xfade=24571
lovel=0
lpc=N1YeQ6rAlcPCyGtDl8qtworrKEI1b3nBVgnXwI1Mr0AMlTBCxEkewrccJ0GU4DtBQPiLwG/NVcAi1MRB5txFQbH708HPtQxALfmIQVF+6EAFk1XAoLjLQHZ6i8B6DIhB
lpc_rms=-23.39
sample=Clarinet_sustain_PP_G5.opus
</region>
</group>

<group>
group_label=MF
lpc_hicc1=84
lpc_locc1=43

<region>
hivel=127
key=A#3
loop_end=262021
loop_mode=loop_continuous
loop_start=58145
loop_xfade=24704
lovel=0
lpc=p9OAQhDSMcPXjCdDzNiAwoM0n0Fb+a8/r22zwd20MEEs4OJA9J4mwe7OdcCbDr9BEVDawW+BAUEC1L9A8bgmQMKwA8F12Qg/Cp2ZQELGpcD/lSw/Ar7qQJyV/8AcZCdA
lpc_rms=-21.30
sample=Clarinet_sustain_MF_A#3.opus
</region>

<region>
hivel=127
key=A#4
loop_end=272727
loop_mode=loop_continuous
loop_start=60521
loop_xfade=25713
lovel=0
lpc=Hb+3Qs3qjMNpWKRDEZ0pwy0IKUIzt/XBwjN2Qsy4BMMmxTxD5l0bw1REvUJiVCzCiTOqwZE1KEKhBFU/veCRwXnw0cDZfYVAjimlQU1Vc8E42hfB6oyWQUoaScHoPpFA
lpc_rms=-14.05
sample=Clarinet_sustain_MF_A#4.opus
</region>

<region>
hivel=127
key=A#5
loop_end=273535
loop_mode=loop_continuous
loop_start=60700
loop_xfade=25789
lovel=0
lpc=L5B4QkcKwMLX3LdC3PgnwpfNREGqSJdBrLDywIQIE8EiGhFCgO7GwdV9iEHDmflAz4y0wJM5qUDzvUtBpA2KwAswtEDUHk1Bj1kOwQOeRkBKtdxBmv7wwdZNEkKyvHXB
lpc_rms=-21.40
sample=Clarinet_sustain_MF_A#5.opus
</region>

<region>
hivel=127
key=A3
loop_end=262585
loop_mode=loop_continuous
loop_start=58270
loop_xfade=24757
lovel=0
lpc=beSfQrk/asPXoHNDCiDpwnjEIEKHjilBg5cZwnHOHkFqGjRBzyqJwZcfKUEfvnFB/y+9waJxWz8s0qRBbwxGwWdir8DudRdB8T0hv6qYIcHiVgFBaZ1IwACWnUAN2UnA
lpc_rms=-21.56
sample=Clarinet_sustain_MF_A3.opus
</region>

<region>
hivel=127
key=A4
loop_end=274491
loop_mode=loop_continuous
loop_start=60912
loop_xfade=25879
lovel=0
lpc=xTsFQ3qBx8OhX85D7tsJw0UOZUCJ4D3C5hOeQh1PCsNduTxDuuAPw2rMsUIwKRjCkwjvwUeVh0F43f9BGanEwNHkrMEj/wfAh7u9QUBBwMHU6qNBb+s0weoLzr8zsoNA
lpc_rms=-11.11
sample=Clarinet_sustain_MF_A4.opus
</region>

<region>
hivel=127
key=A5
loop_end=252813
loop_mode=loop_continuous
loop_start=56102
loop_xfade=23836
lovel=0
lpc=y0/UQrNGEMMZ8PtCRkXPwcBGjcCdxxRCrDMIwMmOgMBLHf5B7ykeQYIiBcGTfZ1B9DWcQSKXycCAFqFBuI6QQfvxgcGozvlByeaCQXsbHcGIUWFBoU3ZQdw5c8Ez6Q1C
lpc_rms=-17.32
sample=Clarinet_sustain_MF_A5.opus
</region>

<region>
hivel=127
key=B3
loop_end=253640
loop_mode=loop_continuous
loop_start=56285
loop_xfade=23914
lovel=0
lpc=fV1aQqmPFcOkjAxD/+R7wpzeI0IlIdjBHpJGQNYb8r+gF/dARvIhwU6rRMB+ZGpBXW3fwCmPNsDG8eZAVZZ6vf0f6sANtUA/Hf4EQf0ULMFcVo1AhuQxPsJqMkA9ChnA
lpc_rms=-22.58
sample=Clarinet_sustain_MF_B3.opus
</region>

<region>
hivel=127
key=B4
loop_end=272543
loop_mode=loop_continuous
loop_start=60480
loop_xfade=25696
lovel=0
lpc=NDq+QmsWiMOxwZ5DCNJAw1Emq0I/jA/CfCYvQMoMEMKpVdRCLuLjwlfXe0IVx17ByhOswLReMj+JG8BAQ84EwXpqt0D5EcNAfcK3wPkuT8HRUa5BKdTjwDEocsBkjIRA
lpc_rms=-11.97
sample=Clarinet_sustain_MF_B4.opus
</region>

<region>
hivel=127
key=B5
loop_end=273729
loop_mode=loop_continuous
loop_start=60743
loop_xfade=25808
lovel=0
lpc=xpv/QpHTO8Oi0R9DvcWFwl41pUExpTdBistjwchMg0GsAVtBLqgjwX+Pb0CCNQVB7qOIQRiJXcFRRMtA8Xw2QXIsNUGcxE7BPhMeQeQOe0EUmoTBicUJQl22jcF7v6bB
lpc_rms=-15.61
sample=Clarinet_sustain_MF_B5.opus
</region>

<region>
hivel=127
key=C#4
loop_end=269894
loop_mode=loop_continuous
loop_start=59892
loop_xfade=25446
lovel=0
lpc=AZtjQh+rCcP1hNlCfEUUwge0p0Ea37fAPpQLwDqZKMFHI4BBEhGFwYQfokATLYK+P5XfQLe8KMH8wSVBl+5GwO0Jpr8D0pY/UogcQFq6DcHBTI5AL7eVPeOuI0D/A4W/
lpc_rms=-22.86
sample=Clarinet_sustain_MF_C#4.opus
</region>

<region>
hivel=127
key=C#5
loop_end=273946
loop_mode=loop_continuous
loop_start=60791
loop_xfade=25828
lovel=0
lpc=bjBCQnUeKsOKmnRDGS8sw4veUUICKtbAQMKSQQUFC8IldDNCwdclwkXN7kHFIZnBm180wCu4u0FR3EXBC1NswP3uEMHi/1dBDch0QTnE0cF/Rqi/O0LGQd8rqcFu2d5A
lpc_rms=-20.49
sample=Clarinet_sustain_MF_C#5.opus
</region>

<region>
hivel=127
key=C#6
loop_end=259377
loop_mode=loop_continuous
loop_start=57558
loop_xfade=24455
lovel=0
lpc=WdeJQn1ticJNqwBCVYsWwUf3PkHgnp/A9jSmQf7WjcETbcxBm6AewYu3Q0EZwSJAtlJeQBOGgkCYl/5AeGYswLOCjkHEB0vBfJSYQVfWvsDGaZdBWvEkwjG3lkC566ZB
lpc_rms=-19.16
sample=Clarinet_sustain_MF_C#6.opus
</region>

<region>
hivel=127
key=C4
loop_end=274886
loop_mode=loop_continuous
loop_start=61000
loop_xfade=25917
lovel=0
lpc=M3mwQjG+dMP1Y2VDW9S6wuj1L0L8ijfBpoOOwUnYO8Ad1VRBRFU1wUHFe0AgQzhB4BkdwTp0McF1KORBRzJjwZj6BMGp//5A8lo6wMoJocDa5AdBEItUQbxv2MFKEj5B
lpc_rms=-20.91
sample=Clarinet_sustain_MF_C4.opus
</region>

<region>
hivel=127
key=C5
loop_end=273673
loop_mode=loop_continuous
loop_start=60731
loop_xfade=25802
lovel=0
lpc=7ZD6Qar6xcJQAQRDxeixwrwmz0EM3KHALUyeQRWvAcK7h/VB6P2fwYZR80ATqgBAyAO+wJ2s4r9GtC5B2oCOwP/XycAmF1tAVWqSQHg4pb/mDp3AtQF7QK+8Mr/vF1M+
lpc_rms=-19.15
sample=Clarinet_sustain_MF_C5.opus
</region>

<region>
hivel=127
key=C6
loop_end=273009
loop_mode=loop_continuous
loop_start=60583
loop_xfade=25740
lovel=0
lpc=ylHKQvoZBcOlaLNCEPj8waeg0EDRw6rAVb26QQ/v/cHi5qpB2uZsQbe0KsIiPDpC+JIlwbDg9MEcW0NC3qLSwZtEnMBrqONBSFa0wa8i3EBeD5xAuOh2QSTEhML6GMtB
lpc_rms=-17.66
sample=Clarinet_sustain_MF_C6.opus
</region>

<region>
hivel=127
key=D#3
loop_end=268321
loop_mode=loop_continuous
loop_start=59543
loop_xfade=25298
lovel=0
lpc=wadUQtKnDsO6uANDT8VfwjP58EESYqrBJLpoQT0138FZGSNCzjccwnGbuUEYij3ByT2ZQFqcfUCebTbAhdKPQKk3TMEwOTZBz1A4wIMogsC3F49A2Sshv8Iq3D5QOVW/
lpc_rms=-25.05
sample=Clarinet_sustain_MF_D#3.opus
</region>

<region>
hivel=127
key=D#4
loop_end=272949
loop_mode=loop_continuous
loop_start=60570
loop_xfade=25734
lovel=0
lpc=MlbgQczZncLSaKdC4asnwmAUKkFxTAVBH1y4wRwCq0F9mx7BJjKDPzJHCkARTRW/MLMkQLWPTsH8M35B55iLwM3+xMAmevlAsfIPwGXn18CACvpA4sEePqoAhsAsRvo/
lpc_rms=-29.55
sample=Clarinet_sustain_MF_D#4.opus
</region>

<region>
hivel=127
key=D#5
loop_end=269486
loop_mode=loop_continuous
loop_start=59801
loop_xfade=25408
lovel=0
lpc=3ihyQoD3NcNEo3BD+NYjw1VfE0Lxw71BH9LpwMFItcGNdyJC9AkbwhDz00FRjUHBzpuNP2B5bb8iidy+6qz5QBy17b/RPhzB70uUQekhZ8E4/5PAsSICQsBlL8LhL7NB
lpc_rms=-17.74
sample=Clarinet_sustain_MF_D#5.opus
</region>

<region>
hikey=d3
hivel=127
lokey=C#3
loop_end=270850
loop_mode=loop_continuous
loop_start=60104
loop_xfade=25536
lovel=0
lpc=yFr9QqCDs8MIirZDMuc7w8mUpkKAPJzB67E5wSVR30Bbj51BpJgswtr2OkCEQqhBMj8bwc4q1L1qO59BdyTZwPd4BsG4CkhAq18IwSSbvUAoSQ5AOLWHwUOc40G9WFXB
lpc_rms=-20.96
pitch_keycenter=d3
sample=Clarinet_sustain_MF_D3.opus
</region>

<region>
hivel=127
key=D4
loop_end=271536
loop_mode=loop_continuous
loop_start=60256
loop_xfade=25601
lovel=0
lpc=g57bQWWVkML+bYpCSSsLwkkytkG1zX/BxqL7P9d2GUDCyiq81+yCv7rBjT4rvqs/VlWBP4XSuMB5Y8hAFw2QwLRy2D9nVpW+dGYDQIeAEL8eWhbA0NI3QLZ/QsAy+dk/
lpc_rms=-25.98
sample=Clarinet_sustain_MF_D4.opus
</region>

<region>
hivel=127
key=D5
loop_end=270553
loop_mode=loop_continuous
loop_start=60038
loop_xfade=25508
lovel=0
lpc=nBnyQRyvscL4OtRCpk54wnqroUEouxrBkjK+QKFAqsAHPpJBVjqdwbcj5T1jAlxBmnfuwCmHhcBG5H9ApggvQHc3YcDj3iRA4Q/avlvbWcC0zAs/Ks5iQZe6r8HNQCpB
lpc_rms=-24.00
sample=Clarinet_sustain_MF_D5.opus
</region>

<region>
hikey=G7
hivel=127
lokey=D6
loop_end=249272
loop_mode=loop_continuous
loop_start=55316
loop_xfade=23502
lovel=0
lpc=2Og4Q1dkYMOFVLVCq7tjwUuzI0LSn5/BC/cVQh9T4sHbdTxCa6KMwYY8wEElJ3DAqbXJQXgCLcEh96ZB2xF2QWXnPMEjEutBksQswUwMM0Jvfw3DSHiLQgk/mEIP5S3C
lpc_rms=-12.78
pitch_keycenter=D6
sample=Clarinet_sustain_MF_D6.opus
</region>

<region>
hivel=127
key=E3
loop_end=255840
loop_mode=loop_continuous
loop_start=56773
loop_xfade=24121
lovel=0
lpc=9OpcQhEjGMPVwA1Dj1tAwqeUqUHc2/LBLLKEQdS+UMH8PKVBHaWQwW9KS0Fz5ArB0F6JQF9iCsHm30VBbtgcwNGdgsCUyHpAPdBLwBqpyz8RVVHB01PPQQJFicFPm3hA
lpc_rms=-22.39
sample=Clarinet_sustain_MF_E3.opus
</region>

<region>
hivel=127
key=e4
loop_end=270795
loop_mode=loop_continuous
loop_start=60092
loop_xfade=25531
lovel=0
lpc=KZChQpZyUcMBHTRDqkNdwkQst0HLlHXBA1GMwWoiG0FxcglBDTonPysbjMCkMwFACESav2pDFMHLRMVAa3mzQHMruT9Kaee/DfjMwG88gcAfK7hAsJu1QX61FcLzZ4hB
lpc_rms=-18.71
sample=Clarinet_sustain_MF_E4.opus
</region>

<region>
hivel=127
key=E5
loop_end=274948
loop_mode=loop_continuous
loop_start=61014
loop_xfade=25923
lovel=0
lpc=Yq2VQn9AZcO3/5hDWtZOw7uPM0LlGRZCkbKfwQCZ2cFcb2JC6WxgwojjB0IN/g++Xbi7wQAVqEEib59A3r5awf6ZDsFT6MpBgwbBwJIln8GOr7JBn13jP/bqpcHyjWZB
lpc_rms=-14.17
offset=12543
sample=Clarinet_sustain_MF_E5.opus
</region>

<region>
hivel=127
key=F#3
loop_end=271676
loop_mode=loop_continuous
loop_start=60287
loop_xfade=25614
lovel=0
lpc=Yp2yQsqRYcP+qD1DyStzwuRKjkH4+JXA7TUYwSAkL0BubaBAoIVOwO7hlT/0lerA4zk7QU2Wm8FdM1ZB8NcRQZFmUsEn7Zs/gK5mQAV98kAoojfBBfLHvnBpsz6is1tA
lpc_rms=-17.54
sample=Clarinet_sustain_MF_F#3.opus
</region>

<region>
hivel=127
key=F#4
loop_end=270055
loop_mode=loop_continuous
loop_start=59928
loop_xfade=25461
lovel=0
lpc=M+58QnvEEsMG+vdCV890wjVOPkI6rAXCO6TgwGkz00HNYS7BfByjP+944L4Fd5TA0T/uQGoHFsG0QoxA3ro1P03dWj+SGvw/OF82vyqVuMDBL3ZAY7mcQMfBYcHKUShB
lpc_rms=-17.50
sample=Clarinet_sustain_MF_F#4.opus
</region>

<region>
hivel=127
key=F#5
loop_end=278199
loop_mode=loop_continuous
loop_start=61735
loop_xfade=26229
lovel=0
lpc=O2LoQt8LgcNOpWlDzNyewhC9GUG3qwTB4BwDQY10S8HbwBpClATywThVT0Ff9TVBa8xiwQNaMsHs8+BBKBiDQTGz/sEL/VFBjKmDwK7tsT2h07pBJJNdQRB0esJ2c0JC
lpc_rms=-13.16
offset=12078
sample=Clarinet_sustain_MF_F#5.opus
</region>

<region>
hivel=127
key=F3
loop_end=270644
loop_mode=loop_continuous
loop_start=60058
loop_xfade=25517
lovel=0
lpc=8Gr4Qd/KmsI8wWhCcqsVwfqttkBp9Z3A6wxewP7dFsHG21ZBT0ygwIZewUAV6D/ASVEXwMwTxMAKJCBBN34ov8XRPMAX67k/OVxTv1dy/b90Nb4/010mv9n6MUCerem/
lpc_rms=-24.42
sample=Clarinet_sustain_MF_F3.opus
</region>

<region>
hivel=127
key=F4
loop_end=269201
loop_mode=loop_continuous
loop_start=59738
loop_xfade=25381
lovel=0
lpc=8ew2QoJn/8KFK/tCsAxRwkNSi0FheavAz1ACwdfNkUAr5vw+nv4fwK/sBkEdCr/AkwYVwDPzIcCGDx9BTNxawL4ZXMCVjcg/sFw/P+7/Vj7yRZDAia9EQXBIYcGhyr5A
lpc_rms=-22.47
sample=Clarinet_sustain_MF_F4.opus
</region>

<region>
hivel=127
key=F5
loop_end=266618
loop_mode=loop_continuous
loop_start=59165
loop_xfade=25137
lovel=0
lpc=LX0+Q7sC/sM6NxJEz22pwxi/kEI2l55CrZDawtVwM0IuVSlChbh7wmUqMkLd4jNBR7VdwtC+IUICpgjBXSPwQVoi3sHP6LS/28znQVXCGcLzqq/A6pT8Qhw6KcNJxahC
lpc_rms=-12.37
sample=Clarinet_sustain_MF_F5.opus
</region>

<region>
hivel=127
key=G#3
loop_end=264738
loop_mode=loop_continuous
loop_start=58748
loop_xfade=24960
lovel=0
lpc=KMCaQswjY8NR1nND4/f+wgAbaEJToInBKRjMwfqRHUGwL+5Bq7YfwiEB/0GbTkLBRG+/wDE01cAu2aNBw4QZwStguz8mYwZAtnVGP7CwVMHrMmRBTtvTwJhFBkAM+Li9
lpc_rms=-21.09
sample=Clarinet_sustain_MF_G#3.opus
</region>

<region>
hivel=127
key=G#4
loop_end=272251
loop_mode=loop_continuous
loop_start=60415
loop_xfade=25668
lovel=0
lpc=Plf7QvUFs8Py2bJDrVnzwlPIl0F67RnCzUQyQNEjFEH2vJhBAoJTwQMoo0B6o4fAoqVYwdHnR0EeROxADCnKwIlus7tv4hzBkEyAQe8yHMEgxL2/PzxyQQdfncF2iyhB
lpc_rms=-16.32
sample=Clarinet_sustain_MF_G#4.opus
</region>

<region>
hivel=127
key=G#5
loop_end=255935
loop_mode=loop_continuous
loop_start=56794
loop_xfade=24130
lovel=0
lpc=1ubwQjcug8M8iJZDA1olw1ssl0GQ8V5CP76wwRzpKsFalSRC95TWwYpOlEBnyC5CTSAwwgAc3UFhayZBew3WwCOJzT8qMLFBSHzJv4yr0cFf+WNCAKSgwe9lYMFlP/5B
lpc_rms=-18.85
sample=Clarinet_sustain_MF_G#5.opus
</region>

<region>
hivel=127
key=G3
loop_end=269019
loop_mode=loop_continuous
loop_start=59698
loop_xfade=25364
lovel=0
lpc=xXX1QitFlsNXpFRDByrSwaJCCUKmUFzCiwUmQaJ/+MDt6K1BavmEwe4juL7rq6RAvuuSwN3KJb8ExFNBtWCBQKNAesGu7eDAGjiLQJQd50CvX/tAyqoHwTCzqMB32qRA
lpc_rms=-18.08
sample=Clarinet_sustain_MF_G3.opus
</region>

<region>
hivel=127
key=G4
loop_end=273339
loop_mode=loop_continuous
loop_start=60657
loop_xfade=25771
lovel=0
lpc=LgavQgOZZsOqVFND4FqTwikDu0HHnJLBB9VlwVAYuUE5C3o/VI6EwZtG1UBekmNAE0MUQVp2TMHdKKnAgdCOQMNbd0BTiV/AUXwiQbT9/8Cw1to/H8HpP3Y+V8HH6TtB
lpc_rms=-17.80
sample=Clarinet_sustain_MF_G4.opus
</region>

<region>
hivel=127
key=g5
loop_end=271066
loop_mode=loop_continuous
loop_start=60152
loop_xfade=25557
lovel=0
lpc=4Wu/QlscYMNUIHtD7hn9wtuMFMBceUFCdm4JPSrYWsKR2axCEmGPwkqPMEKfq9+/I9RWwamLkEGsb7/BFT2KQqJCu8LDrX5CRf+UQUVtT8KKAI9BdVleQgZZmcI0cTpC
lpc_rms=-15.32
offset=4082
sample=Clarinet_sustain_MF_G5.opus
</region>
</group>

<group>
group_label=FF
lpc_hicc1=127
lpc_locc1=85

<region>
hivel=127
key=A#3
loop_end=272737
loop_mode=loop_continuous
loop_start=60523
loop_xfade=25714
lovel=0
lpc=8QGvQQ5WcMJsPnFCjuSzwVzep76TlQK+FJgqwIHXFEFvCz3AdkCiwDjnF8DGiDNBPv30wMUWB750Z7C/5V4AQZ6k0sBCYyxAhlHXvzVMEL7Tv8c+lPqvvw2ZMUB7xpG/
lpc_rms=-23.10
sample=Clarinet_sustain_FF_A#3.opus
</region>

<region>
hivel=127
key=A#4
loop_end=276060
loop_mode=loop_continuous
loop_start=61260
loop_xfade=26027
lovel=0
lpc=wdrAQdgthMKOLodCkA+6wcdcZsBPsZK/th/UQIuuTsEV1p1Bkc5UwfBSsEA27Y7AHUomwHD15kB3VZO/pIKIP5SL7sCpD5FARMOPQDIa08CpZ3FAAXikP8zPl8Ar1TlA
lpc_rms=-19.73
sample=Clarinet_sustain_FF_A#4.opus
</region>

<region>
hivel=127
key=A#5
loop_end=276011
loop_mode=loop_continuous
loop_start=61250
loop_xfade=26023
lovel=0
lpc=xTwXQmF9AcJ+e7VBRn84QOey6UBy4NxA9C64v6wT5kCobjNBIH/kP7DkIUGQsw/B/CyfQR1Xj0ApiIk/1ta7vmreikG+kBTA3QBqQVtoBMGrh1lBlot4QMiYIUHG0Iw/
lpc_rms=-16.39
sample=Clarinet_sustain_FF_A#5.opus
volume=-3
</region>

<region>
hivel=127
key=A3
loop_end=267156
loop_mode=loop_continuous
loop_start=59284
loop_xfade=25188
lovel=0
lpc=uvEpQo9B/cLyHhFDxNOMwuVKS0DRlStB6FKqwPsrZEBWEKnAaXBvQBZMXb7rcA1AEEyYwETe2L8YE9RA/dSywEu06z9nhJ4/bbujQNtEQMGRCjdA7HQgQWT5KMFtKYdA
lpc_rms=-20.13
sample=Clarinet_sustain_FF_A3.opus
</region>

<region>
hivel=127
key=A4
loop_end=273873
loop_mode=loop_continuous
loop_start=60775
loop_xfade=25821
lovel=0
lpc=WYk9QuDb/cL5AwdDqQeGwlfGP0G8PovAB4i2QfL7MMLX/G5CHENawvme/EG+YxLBf1P3wCj0IkHmV/TAzP0qQcaNPcF9c1lBvuVvwTJCOkHTjuHA4t9AQZl/nMFQWDxB
lpc_rms=-11.75
sample=Clarinet_sustain_FF_A4.opus
</region>

<region>
hivel=127
key=A5
loop_end=267175
loop_mode=loop_continuous
loop_start=59289
loop_xfade=25190
lovel=0
lpc=zcTzQTR6BMI1etNBs3yxPhrY8sA8s7JBOb8bweuVVUBnRhFBn1IBQA8BtUDcG/e/7Nm5QDEJtUC92X1AWAAeQMyCuD4Mv4xA15JWQaZXI8GSqztBADufP0P6NT+xIzdB
lpc_rms=-14.51
sample=Clarinet_sustain_FF_A5.opus
volume=-3
</region>

<region>
hivel=127
key=B3
loop_end=271464
loop_mode=loop_continuous
loop_start=60240
loop_xfade=25594
lovel=0
lpc=WLgRQnJ9ycJ7tcFCKWggwmNSxUFHYNPBW4YKQe1LAMCysQ5BRn0xwdfrxED9m6o/b9aNvsCz68AJ3pJAF3tpQL0OhcDCRqVAgjXqwLXRND9QWqtAJLOJwMD/O0A6xqy/
lpc_rms=-21.06
sample=Clarinet_sustain_FF_B3.opus
</region>

<region>
hivel=127
key=B4
loop_end=272686
loop_mode=loop_continuous
loop_start=60512
loop_xfade=25709
lovel=0
lpc=lBAXQjSByMJP/txCF0uAwtIUyUHyvQnBUckRQQLy0sGt0w5ClCbFwdHyO0Gx7Zq/02kTwbnX50A7h/M+uManP5pk4sDZfuFA7pbGvxcl0r+bbk1A5As5v4w9jMAZipZA
lpc_rms=-12.27
sample=Clarinet_sustain_FF_B4.opus
</region>

<region>
hivel=127
key=B5
loop_end=271836
loop_mode=loop_continuous
loop_start=60323
loop_xfade=25629
lovel=0
lpc=sNEAQ7zKBsPaC7BCijwlwTuG3z/WOgvBA4VKQtZxMMLxV+ZBft99QVWSMcFpviZBNDVPQZF/G0AiN03AKju2QScHpUDy37/BJwdGQlLodcGd5LLAfHDbQQVDgEFjqVbC
lpc_rms=-7.89
sample=Clarinet_sustain_FF_B5.opus
</region>

<region>
hivel=127
key=C#4
loop_end=273054
loop_mode=loop_continuous
loop_start=60593
loop_xfade=25744
lovel=0
lpc=k4RAQmrzEcNmYSZDs42kwr4WikFGvz3B6EVpQS2oA8HY+NxAAO1OwPKjr8DbjBlAosBaQBSsK7+UmOc+Te2qwHNy9D9HrlxBdZw2wWaqBcEDMT49GbS6QfD6pcFB1alA
lpc_rms=-16.16
sample=Clarinet_sustain_FF_C#4.opus
</region>

<region>
hivel=127
key=C#5
loop_end=272105
loop_mode=loop_continuous
loop_start=60383
loop_xfade=25654
lovel=0
lpc=wjeRQU47MMKnEzBCrH+eweYsuUCzKxrBzUBYQbIxN8EGofhAM0xnwPA6U0B8xQTBZWxDQeaQ/cCaDFjAVM8+QSbDOsG6RrVA5wFHv5HsjkC8gwnBQf2DQI0DdkCG5VbA
lpc_rms=-17.49
sample=Clarinet_sustain_FF_C#5.opus
</region>

<region>
hivel=127
key=C#6
loop_end=267260
loop_mode=loop_continuous
loop_start=59307
loop_xfade=25198
lovel=0
lpc=gXZsQq5QKcL4S7tBXZ8mQVhvakHmpThBT7KUQZkkQUF9QUZBguCUQVYkMUGqo15BQvGKQZ6EL0FYv4BBV6JbQT3RcEGwOixBEsCsQfqwlkD0S9FBfGCOwV8UaMBeR/JB
lpc_rms=-9.60
sample=Clarinet_sustain_FF_C#6.opus
</region>

<region>
hivel=127
key=C4
loop_end=271982
loop_mode=loop_continuous
loop_start=60355
loop_xfade=25643
lovel=0
lpc=kvD+QYkjucJ1J8dCf1Q4wruA/kB2gVk/cMwtv4Z7MsCEUApA3dX5vj7Gp0CNA9/AyALlu4hCpDw5PItAhdo8wLiMgEBavjS/cdt6wGMnhsAGFAJBV0UCwInoqr1LHbi+
lpc_rms=-22.74
sample=Clarinet_sustain_FF_C4.opus
</region>

<region>
hivel=127
key=C5
loop_end=269937
loop_mode=loop_continuous
loop_start=59902
loop_xfade=25450
lovel=0
lpc=AZduQZ/OHcIPADFC5WLhwcvudUGcpkPB+3UrQVYXLcERZEdBI4nfwME9JMCJN5ZALm5Jvun0X8DtCnxAOELwv0iYLL+yw7U+Z6KPPz0IK0Ayn9TAS++YQOrDBr+tx8a+
lpc_rms=-17.27
sample=Clarinet_sustain_FF_C5.opus
</region>

<region>
hivel=127
key=C6
loop_end=267831
loop_mode=loop_continuous
loop_start=59434
loop_xfade=25252
lovel=0
lpc=WhFmQji6IcL1hQxCclpUwWYuhUEgkA/B6JyTQVKOG8GsJlxBxi4OQEoyQb/DHR9Bmmc8QIHZXT2FLw9BgXGMQJ3Ob8CW8ItBr34vwS0WlEE7eB7BuWO0Qcbc4cFgRP7A
lpc_rms=-14.70
sample=Clarinet_sustain_FF_C6.opus
</region>

<region>
hivel=127
key=D#3
loop_end=274992
loop_mode=loop_continuous
loop_start=61023
loop_xfade=25927
lovel=0
lpc=ETTTQTTck8IFrplCHJcYwmjQr0GPaNTBaxOuQQb1nMG77tZBQLO/wTGtS0H/yfLAyfTOQECon8AlFyS/nVvpQP1NOsANzGvAV7z9PeOBSEDHhDK+TN7zv+Nu4j77Nfo+
lpc_rms=-21.00
sample=Clarinet_sustain_FF_D#3.opus
</region>

<region>
hivel=127
key=D#4
loop_end=273823
loop_mode=loop_continuous
loop_start=60764
loop_xfade=25816
lovel=0
lpc=SaUOQl8d1MILSPVCeuSBwqMLC0FJySVBCiOGwc/Au0FhFpjBxxU6QbgtB8HOY5pAnDKxPrAKFMGAKzRB+jbzwLeK2EB69mjAKDiGQDEDAsFbwUxARX0dQRdkeMFeRt9A
lpc_rms=-20.15
sample=Clarinet_sustain_FF_D#4.opus
</region>

<region>
hivel=127
key=D#5
loop_end=275134
loop_mode=loop_continuous
loop_start=61055
loop_xfade=25940
lovel=0
lpc=RIpQQXmW38EiI65B+UHJwFIYh0As+QfBDPW9QMIhGcDA3rBAtuVRwIMDisCghsJAzHhnPsrazsBIPUVA8h48QO7KVD9dhFvA1LYfPlpxA784prBAxdrbv9on2sB6K61A
lpc_rms=-19.24
sample=Clarinet_sustain_FF_D#5.opus
</region>

<region>
hikey=D3
hivel=127
lokey=C#3
loop_end=271033
loop_mode=loop_continuous
loop_start=60145
loop_xfade=25553
lovel=0
lpc=5OMcQv3n7sLv5xBD6rDAwqdWQ0KdbZbBwzAgwGN3MUC4EkBBwuGmwdWHHUH3099A0SPgwOIYkb/mvFhAb21NwBd0kT3jNqxA5JL0wMeoDkHlSJDA4AjXwHL/HUEMMF/A
lpc_rms=-22.75
pitch_keycenter=D3
sample=Clarinet_sustain_FF_D3.opus
</region>

<region>
hivel=127
key=D4
loop_end=271367
loop_mode=loop_continuous
loop_start=60219
loop_xfade=25585
lovel=0
lpc=hJVnQqahIMN57yJDbiWQwqMgvUEdro/B4qeNvl8yHUFyOYpAf5j2wGiQn8CSjKJAGzcdQMqipMC00y9A3laFwPzDH0FKJCfBwE6EQactv8F4TIRBL03ewKY8oUBIAwjA
lpc_rms=-12.60
sample=Clarinet_sustain_FF_D4.opus
</region>

<region>
hivel=127
key=D5
loop_end=273557
loop_mode=loop_continuous
loop_start=60705
loop_xfade=25791
lovel=0
lpc=jqHdQU9lj8KS9qNCPVxlwnEWFkJ9cwvC/YoOQqdazsG+nAZBaIoAQOgWNsAko6BAkcQNwUZR/UD2KrrAieCWQIQNpcCS8B9BN4fvwCTRMMA0HDlBhzsNwU7rvT+dcYA/
lpc_rms=-12.77
sample=Clarinet_sustain_FF_D5.opus
</region>

<region>
hikey=G7
hivel=127
lokey=D6
loop_end=261236
loop_mode=loop_continuous
loop_start=57971
loop_xfade=24630
lovel=0
lpc=X5kXQwEv68Ke5xfBBShKQlk/+0CqN1tBYDOaQWc8DkED345BiIA6QQCzi0FclzhB4Fh/QUBidkFfXyRBXk6jQR9VnUAqhPRBeQIqwVUOW0I8SdvCye2iQMtQ9UJjj0bC
lpc_rms=-5.35
pitch_keycenter=D6
sample=Clarinet_sustain_FF_D6.opus
</region>

<region>
hivel=127
key=E3
loop_end=272984
loop_mode=loop_continuous
loop_start=60578
loop_xfade=25737
lovel=0
lpc=ucnrQTD4rMIMN8VCI+hlwmjd4UF486/B8PdhQURQDMGoPGJB4vxSwYny8z+8uDNAICEPPuOw+8BJqVVBRYCiwPHqgr+J5IHAhyRXQHIAFkCGV5K+0H2MwKg0X0B+ayC/
lpc_rms=-18.89
sample=Clarinet_sustain_FF_E3.opus
</region>

<region>
hivel=127
key=E4
loop_end=272459
loop_mode=loop_continuous
loop_start=60461
loop_xfade=25688
lovel=0
lpc=z23gQSiumMLbOJVCgWLGwXPSjMD6c/9Ar7c6wTgvxkBodgVBgzogwRlzhED9wq/A0t04QN5UmD37M55AcJahwG6uJsB2O5BAc7RUQNu8FsF0LeJAf+Ipv8dATcCFPA9A
lpc_rms=-20.38
sample=Clarinet_sustain_FF_E4.opus
</region>

<region>
hivel=127
key=E5
loop_end=278531
loop_mode=loop_continuous
loop_start=61809
loop_xfade=26260
lovel=0
lpc=rbezQRYLQ8IsGiBC7KluwdwnCUGBfWPB1BKZQdXvfcEm+fVAVdmIvyk2s0BgxTHBmNiZQB+FAT+1KftADZAzwbHSkkCvwiK+5ZSIQHxI/8BBm/pAZLweP3eiJcGDRgJB
lpc_rms=-14.78
offset=13401
sample=Clarinet_sustain_FF_E5.opus
</region>

<region>
hivel=127
key=F#3
loop_end=273710
loop_mode=loop_continuous
loop_start=60739
loop_xfade=25806
lovel=0
lpc=4/D2QTZDwMIMkO1Cls2KwiSMt0G80pLBwlOaQYAoQ8Fmq0ZBkolAwcExoEB1PZk/q6JZwEl37L9cCQJAktHBQPuYGcByAgjBZhmiQCXBvUAdjB7BLa4nQS1kFsEMCnNA
lpc_rms=-23.59
sample=Clarinet_sustain_FF_F#3.opus
</region>

<region>
hivel=127
key=F#4
loop_end=271584
loop_mode=loop_continuous
loop_start=60267
loop_xfade=25605
lovel=0
lpc=lqjZQcQ0mMIL46BCFnX5wZd2TsD/89o/UBQKP08wvD7xqvVARkUgwdP3fUD6cXXAb6mbQBXTW8DfQ8c/MNA2PfBvrD/9K37AL3G4QCjn9cBw1c1AJX9JPwPdscBM6lVA
lpc_rms=-18.14
sample=Clarinet_sustain_FF_F#4.opus
</region>

<region>
hivel=127
key=F#5
loop_end=283719
loop_mode=loop_continuous
loop_start=62960
loop_xfade=26750
lovel=0
lpc=X6jaQccCfcKMLYJC7fEQwnm1l0FehEbBk60xQYqUbMHe9n1BgwyCwIhCET5c8VzAhA2wQK+4jsDl7dE/TeUdQYJdMcGBZI9AulCLwKlkFEGF+OHAcFlMQaCflMHhhj9B
lpc_rms=-14.86
offset=13954
sample=Clarinet_sustain_FF_F#5.opus
</region>

<region>
hivel=127
key=F3
loop_end=275047
loop_mode=loop_continuous
loop_start=61035
loop_xfade=25932
lovel=0
lpc=i9SoQVFTYsLGuFNC1feIwZF9vEDyGEXBxxnwQIEijsDv3BxBOo3PwNfG/b6e8bi/X1qJQDggucCD/fpAMsmiwFPnqz+aDIU/AkySwKwiiEDbDIa9/qfHvxP0Pj/Z7Ty+
lpc_rms=-25.69
sample=Clarinet_sustain_FF_F3.opus
</region>

<region>
hivel=127
key=F4
loop_end=270667
loop_mode=loop_continuous
loop_start=60064
loop_xfade=25519
lovel=0
lpc=+d4tQqLh6sI3P9NC93TPwXIWFEAHaHnBZpYrQBfHq0ADtK5AJyuqwOeq2j99ZGzAnSGyvpasmL+fgapAv4j1Pw9l4L/OPvrACQoWQemPKMFG+UBBKAhDvpHiPcFqV+hA
lpc_rms=-18.67
sample=Clarinet_sustain_FF_F4.opus
</region>

<region>
hivel=127
key=F5
loop_end=271514
loop_mode=loop_continuous
loop_start=60252
loop_xfade=25599
lovel=0
lpc=OTytQQLTL8IwmCFCfLunwduS0kCJ2o7AnqkcQXNB98DhGfhAd6XawO9sYUB6dJK/8yc+QEzF5cCfT+9AtvAGQEr+7cCyLBJBURS7wNNdiEBpcMXAPOfsQArk3MD7R7tA
lpc_rms=-14.36
sample=Clarinet_sustain_FF_F5.opus
</region>

<region>
hivel=127
key=G#3
loop_end=265072
loop_mode=loop_continuous
loop_start=58822
loop_xfade=24991
lovel=0
lpc=PQM0QsZkGsPw2VxDM8wkw6SIc0KeGom/zcRrwVrZkUHZcQ3BzTqAwde45EHOejzBc3t4wMVfCMFLe5lBUnMfwdrWGkCKmQU/dwXNwH/CAUFSlx/A3+47v0l8zb+Cwdw/
lpc_rms=-21.77
sample=Clarinet_sustain_FF_G#3.opus
</region>

<region>
hivel=127
key=G#4
loop_end=272202
loop_mode=loop_continuous
loop_start=60404
loop_xfade=25664
lovel=0
lpc=jHHHQR7pg8LWQHxCN1KFwfJKg8AgqjfBU91/QVClp8BT3OQ/LF79v6hCDkCAGL3ADyvzQGzIFMDi6rLAYhTVQPgxUcDLRHlAFzwCwAL86cATo+9A7HkJQSWRi8F8sgpB
lpc_rms=-19.86
sample=Clarinet_sustain_FF_G#4.opus
</region>

<region>
hivel=127
key=G#5
loop_end=264318
loop_mode=loop_continuous
loop_start=58655
loop_xfade=24920
lovel=0
lpc=BbbpQqMqRMMSTkNDV7nlwjpEZ0JEDglAyYQFQY+PiMGOmo5B8DzNQew9p8ERjO5Bfz4+wSbOJkBxYxRCgmjEwTFOUT7QbA5CLyBhwWrKsUFUxBjBbG5DQTfdg8AR6txB
lpc_rms=-7.13
sample=Clarinet_sustain_FF_G#5.opus
</region>

<region>
hivel=127
key=G3
loop_end=274089
loop_mode=loop_continuous
loop_start=60823
loop_xfade=25842
lovel=0
lpc=AK/NQVupjsJWv49C2bHvwclTCUEb7yfBFIgXQSDLysBEwudATD7DwAOxlz9VApg+kFr9PwEClsDFRidAUtoYQE2lZr+a996/wzYPQBZoOMBeY8o/alwdwFfbhkDYr/K/
lpc_rms=-22.54
sample=Clarinet_sustain_FF_G3.opus
</region>

<region>
hivel=127
key=G4
loop_end=274096
loop_mode=loop_continuous
loop_start=60825
loop_xfade=25842
lovel=0
lpc=T62nQtfya8NiNmRDupNiwrHLnMHSZfTA12YVwXQ+uUGkrUlBncNXwT/eWsHc1LE+Uig1QRdFm0Ce/wDAkGEVwV43rkACoCjAbfHHQLSiosEugvFBRF7UwGPzo8ExwmRB
lpc_rms=-12.88
sample=Clarinet_sustain_FF_G4.opus
</region>

<region>
hivel=127
key=G5
loop_end=271665
loop_mode=loop_continuous
loop_start=60285
loop_xfade=25613
lovel=0
lpc=qw/uQYWdMMLYZfZBy7IcwVMaT0B8jpE/33c2QeorfsGamlpBwb/OwM2kgUAw3VE/LOvxQPxne8BQxVjAb+EhQfBtD8GxBudApcjzQMpu/cBq/F9A6OeLQIdRFsE8RE5B
lpc_rms=-17.03
sample=Clarinet_sustain_FF_G5.opus
</region>
</group>

<group>
ampeg_release=0.8
group_label=RR1_0-45
lpc_hicc1=42
lpc_locc1=0
seq_length=2
seq_position=1

<region>
hivel=127
key=A#3
lovel=1
lpc=kh6AQmuv/MLJap9CEKztwWLFGEF1cb0/K1OZwHAPEEADyn1BNcPpwIo8JMGUcoFBldnxwKdVFcGCJLtA8zKyP45sRMAJcgFAPnJhQCc218A2iJ1A2Qg6Pb2xvMBLHJhA
lpc_rms=-36.22
offset=1356
sample=Clarinet_staccato_PP_A#3_RR1.opus
</region>

<region>
hivel=127
key=A#4
lovel=1
lpc=HvoDQxvPqMOM+qVDXSIZw1tCAkKzCZJALUqXwAcLmcF/TUlCckdxwuV32kGlTp9BiGUEwqOGa0BLA5lB6xMhQSAoM8K87sZBOU86QX4Dk8GIDJ1BS6eswcX6Y0EJ95a/
lpc_rms=-25.02
offset=4392
sample=Clarinet_staccato_PP_A#4_RR1.opus
</region>

<region>
hivel=127
key=A#5
lovel=1
lpc=ea0NQl/ffMJjTQlCUuI+wZYKtL81B41B3cJlwSnlOkC8OlJBu9KBwdZs80Ddu1bAt1O2wLKpfkAwDXNALEcrQGSnJMCB8lHA8+PqQHZsnMC/PxW/7ikBwM1GvMDcFAZB
lpc_rms=-38.60
offset=452
sample=Clarinet_staccato_PP_A#5_RR1.opus
</region>

<region>
hivel=127
key=A3
lovel=1
lpc=vzKEQvVPMsO/JTFD2kGpwiVicEFWkIVBut6KwQF1ykBYSQZBW2D2wNeVPMHqJ4lBZioGwSNT7MC3b21BWzhiwGbnMMEyTjlBS/0nQMFWysBclADAfsoQQW23PsH9ibhA
lpc_rms=-31.27
offset=1062
sample=Clarinet_staccato_PP_A3_RR1.opus
</region>

<region>
hivel=127
key=A4
lovel=1
lpc=OjPhQhm3icOUfGpDF0GxwunxgEEp6qFBwWBOwWYACcJWWZJCThKFwkmfmEGdo9pB5Zc7whm/y0G+Vh3B0BuaQS3SlsGq1n1BofW5wPexzMDXtIVBfzmgwUOo5j/lz+ZA
lpc_rms=-26.56
offset=1923
sample=Clarinet_staccato_PP_A4_RR1.opus
</region>

<region>
hivel=127
key=A5
lovel=1
lpc=B7ndQgL6W8PrCk5D8NvIwn3g5EEzh/dB7w5BwgT7lkGGCglCs9/dwd/fcUCfzWBBz7zgwFm6NEEk+wFBhfeEwbXUvEBERcZBHoUswZRmo8CYW3pAgQcuQchOYkHT7F3B
lpc_rms=-26.16
offset=738
sample=Clarinet_staccato_PP_A5_RR1.opus
</region>

<region>
hivel=127
key=B3
lovel=1
lpc=2Bw7Qv7hzMIeG5RCXoTbwe2EtEBGDAdBnnvgwAsBNkCVoO9Azdr4wOLZb8C9WwtB4sjfwAaOacBGHbhAIw9gP8hnxcBhNtNA9LQyv2paiL6LNIG+WjFhQO9GDcEtlJ5A
lpc_rms=-36.20
offset=308
sample=Clarinet_staccato_PP_B3_RR1.opus
</region>

<region>
hivel=127
key=B4
lovel=1
lpc=6tiyQlcTgMNSFpNDUuInwwnweULCWffBZGnXQKGAl0D6DKVBMccdwig2skGXz/pAesAHwhC1CkI3lw7BCEEKQFn9fMHFVNBAi211Qe6bvcDrKnPBFlR+Qd5vysBUMEhA
lpc_rms=-22.91
offset=1606
sample=Clarinet_staccato_PP_B4_RR1.opus
</region>

<region>
hivel=127
key=B5
lovel=1
lpc=QtT0QjcFiMNDophDyklCw+RDU0Lw8DxCebZGwjonN8GaVa5CpMLEwtm7fEI0YVzA9vQBwrc2T0KB0zjCjr8xQlrQpsF9mkDBz0czQmQj1sGfh77BNRO1Qsliy8J8cRNC
lpc_rms=-22.76
offset=479
sample=Clarinet_staccato_PP_B5_RR1.opus
</region>

<region>
hivel=127
key=C#4
lovel=1
lpc=xc6eQtbaGMNRC79CXrI1whRrckE9KptBSB9OwRlMgD9LLC9BJT3pwHDB/D46/E5AGzcNwYb168CUvxdBjp0GvrXL9r/U2wdBCSYcwDQ3l8AACTRABWJsQJELjsF4wFZB
lpc_rms=-34.04
offset=564
sample=Clarinet_staccato_PP_C#4_RR1.opus
</region>

<region>
hivel=127
key=C#5
lovel=1
lpc=nsMqQj5dq8IEIoJCSFbCwQAkgUA0xulAx/HWwBL9oMAtlxNB+i2HwFOMRT/DkzhARHtrwCfYhcDcn55AoL05QEfOiMCktg4+dSSJQD+Bnr+hgMs/bRJsvSonTL6rlJy+
lpc_rms=-38.38
offset=581
sample=Clarinet_staccato_PP_C#5_RR1.opus
</region>

<region>
hivel=127
key=C#6
lovel=1
lpc=cuftQsaZesN4DmhDGybcwmYvsEGi27hBjwzrwYsdUEH5A+FB4r9gwjY6EUKSUudB7jOEwkdoPEIuagfA7wvGPVOCo8EvS5BBM6tKQREkssGNAP9AskMkwnJxZkJCtsbB
lpc_rms=-25.32
offset=441
sample=Clarinet_staccato_PP_C#6_RR1.opus
</region>

<region>
hivel=127
key=C4
lovel=1
lpc=rJmrQglYL8OeANpCyyIQwmwfQkGd3gBBB/VWwFgTM0Abew1BVtXEwG+COME73IdBI/8mwYt7YsGHiE1BfEK6PgT9QcBoU2M/gswjQZGeVcCLaN2/r+8KQDEiicEXqFBB
lpc_rms=-33.42
offset=641
sample=Clarinet_staccato_PP_C4_RR1.opus
</region>

<region>
hivel=127
key=C5
lovel=1
lpc=aWEmQjOUkMKEzEtC0pKzwSkmY0C1LVNAvPK+wDiRhT/MZvVAS6K8wMtGSL/3agxBcmwkwEqFZcANe8s+TXipQNwbecDqM+O//4XyP4foRL904wY/TVTRP29Og8Cy67BA
lpc_rms=-39.86
offset=537
sample=Clarinet_staccato_PP_C5_RR1.opus
</region>

<region>
hivel=127
key=C6
lovel=1
lpc=w5TSQqe5X8MHJU9DQCnbwv6dB0Idy1dBudIYwj/eYkF5NyxC5SBrwjqq2EGjVJVAuKhXwQONNEEn2IlA1JpEwQoSjT+RphRBP/FZPwAcT8BEsxfACKOGwIP/h8FgBo5B
lpc_rms=-26.40
offset=1324
sample=Clarinet_staccato_PP_C6_RR1.opus
</region>

<region>
hivel=127
key=D#3
lovel=1
lpc=V1uLQcue3sHbmR5BnowswAexpUBmJSrAob0uvmPhF79iwiZA+h+kPo47Hb8nrvy+YG/FPuy5yL5UtMC/wfc4P8Mq1T4SKaq/MSvpP5clqb0wEWI/XxAvPo3Nzj0wCay/
lpc_rms=-44.42
sample=Clarinet_staccato_PP_D#3_RR1.opus
</region>

<region>
hivel=127
key=D#4
lovel=1
lpc=oIfQQWo2+sEDrGpBHkS5wGL5lb/qwBRAxoZ/wCyCED4jj9E9VLmyv62g4T/pDpQ+21slPbJ/WMBgfgxARUH9vojvTL+FSJg/87L0vboMhL/yJps/ViI9QNBJI8AFyDhA
lpc_rms=-45.25
sample=Clarinet_staccato_PP_D#4_RR1.opus
</region>

<region>
hivel=127
key=D#5
lovel=1
lpc=itjkQbJGOcKvpP9BYzl9wW5iUUDCADRA1VyBwDw83L/QlgtB/GYRwWu3EUBY6cJAcWqUwJxPRb4/gnc/Ly1TQDZhWMA6+iBAv86lvlUhub55VBFAFQPEvscgrb+NGAe+
lpc_rms=-43.10
offset=4546
sample=Clarinet_staccato_PP_D#5_RR1.opus
</region>

<region>
hikey=D3
hivel=127
lokey=C#3
lovel=1
lpc=7FQnQnCfjMKaIpxBh4qEQHyNAUFTlsTAT9WJPmX1bj/ImPJAsmAWwJXFk747l13A8NLLPzz6bcDz4NS9Yv6cPzGgY0DiKYnAsmUzQE8POz5fLk6/2ObiP+it8b/66Bg8
lpc_rms=-38.58
offset=861
pitch_keycenter=D3
sample=Clarinet_staccato_PP_D3_RR1.opus
</region>

<region>
hivel=127
key=D4
lovel=1
lpc=EJCXQjJM/sIJMFtCnTZDwUZo5z/O/BtBOqwcwbThEkHp2IlAEg6IwPpfhsDRIWpBQfzSwOzWJMG1+UVAmDJyQG5/S76qdIDAiHzfQOodJ8BedJTA1+b6P/mJHsH7TEFB
lpc_rms=-36.17
offset=657
sample=Clarinet_staccato_PP_D4_RR1.opus
</region>

<region>
hivel=127
key=D5
lovel=1
lpc=LwcvQtW1usJE+45CUfrtwTWpEUE4m9NA3FbAwMHLgj+KKflAFYg1wVUVvT+N/ZBAMDXGwP/UNb4sFKVA94BzQJ2nPcBTSFi/a2CuP4Qrur9yMRI/feKiP2nf3sCQDeFA
lpc_rms=-37.07
offset=1058
sample=Clarinet_staccato_PP_D5_RR1.opus
</region>

<region>
hikey=G7
hivel=127
lokey=D6
lovel=1
lpc=JMAVQ6YpmsP0s4dDzQfSwpzM90GfpaHAVOMkwYvkykByJSRCjHVOwnQeCEJE8oxBFokawodMu0H5QSdB6HEyQZCAksErqMRA1ZcAQRlqhsFB+grBppMOQqcIvsEVZZ5A
lpc_rms=-23.02
offset=2253
pitch_keycenter=D6
sample=Clarinet_staccato_PP_D6_RR1.opus
</region>

<region>
hivel=127
key=E3
lovel=1
lpc=QxMeQkaqi8Lx+g5CUyIhwb/tPUD6Zg6+L9ucvwsX9T/Zss1AwnEAv3yeAMA9co5AX727wMuxgsDT1e4/8+4BQCxH5r+9sxG/ZwlHQCXgP7+hfWS/1RuDQCCM379MwIe/
lpc_rms=-42.37
offset=391
sample=Clarinet_staccato_PP_E3_RR1.opus
</region>

<region>
hivel=127
key=E4
lovel=1
lpc=au+nQs/lEcONy6hCI7Ycwu0rgcBYpRlC67nJwSBNNUFthchApmekwKfTckBptr7A8pqDQJEmmMHvfwJBX0MkQQl4lcAgYAM/sa1CQWyAt8GaTcZA04hOQRBJp8ELB2RB
lpc_rms=-32.42
offset=547
sample=Clarinet_staccato_PP_E4_RR1.opus
</region>

<region>
hivel=127
key=E5
lovel=1
lpc=o6tHQSTnhcE4u+1Ap4ggwJoRoD3jC8y/oKs8P77ksj7ragJAYBeDv/y9nz+xmgs/yMmzvxeTur9zJB0/vn5DPz5rbL905Jg/7chCPykGFz9pZ4y+pCbwvlk2az9uCLa/
lpc_rms=-52.64
sample=Clarinet_staccato_PP_E5_RR1.opus
</region>

<region>
hivel=127
key=F#3
lovel=1
lpc=Ax+CQoHAwcJ5q6RBS8JkwJVXKUECRBDASE9BQBC6ET5bygFBRTgPQWeG+8B2lNS9riOIv1Tyc8GRkbc/4Vz3QDV4qkDaGafALHqZQHhxT8Dg07U/bJ3hv3VxXsAZ7HtA
lpc_rms=-33.24
offset=1612
sample=Clarinet_staccato_PP_F#3_RR1.opus
</region>

<region>
hivel=127
key=F#4
lovel=1
lpc=V6ZFQpfVa8IrCi5BYh9bwXe0Q0EvFBK+CHViP+iWVD8HBrZAn/aLvz9cW74Z0IS/xcf4vwxVzb8a4Jy+6KVgvlmakUCiP4G/2XXJPll6ksDEk36/9FKEP2ob17/OCuRA
lpc_rms=-35.00
offset=434
sample=Clarinet_staccato_PP_F#4_RR1.opus
</region>

<region>
hivel=127
key=F#5
lovel=1
lpc=yZr7QtTbd8MOuz5Dv1qqws6KIkJ2pxtBtjEEwqKrlEEkO+ZB85kzwn+Cc0GQM79BHQIdwr6MnEFcfS9B7RunQSajBMLyxZhBeyeUwbA7FEEH6fFAdNXbwE99kkGgML7A
lpc_rms=-27.14
offset=1106
sample=Clarinet_staccato_PP_F#5_RR1.opus
</region>

<region>
hivel=127
key=F3
lovel=1
lpc=QHYaQi4qpcLpvVBCv1ZKwWGLAkHxCS3A4r9XwFtljkBaar5AqojIwGRsq8D/xIBAySxCwKorNMDuVgVBy2HtPlyB0cDmGT9ATl7WPyvSkz/ljUfAOzp5v+jWBz8r1o4/
lpc_rms=-37.68
offset=873
sample=Clarinet_staccato_PP_F3_RR1.opus
</region>

<region>
hivel=127
key=F4
lovel=1
lpc=qieNQlrBGcM5aNNCVloQwm1+h0FxP19BsJOewZhMd0D1UAdBlVCEwYGbJEGWYI/AJfEwPo7xjL+VseY/7V9mQIFI3r9vMaq/diXnP9njQz8YcPDA4Y+gQd1z8cGU+YRB
lpc_rms=-32.46
offset=766
sample=Clarinet_staccato_PP_F4_RR1.opus
</region>

<region>
hivel=127
key=F5
lovel=1
lpc=3ux2QUy02cF3C51Bb+8+wbzPVkCCQZg8KfX0vw47C79mj65AVXaOwDxkVEAjDgtA86MswMVrXD9HEBo//GoLPm99D8A9N2Q/+5iCv7PnH78JY1k/xQJNvhlgO7+pAaI/
lpc_rms=-46.11
sample=Clarinet_staccato_PP_F5_RR1.opus
</region>

<region>
hivel=127
key=G#3
lovel=1
lpc=MAyMQsHAJMMnmw1DdJicws7S70GbZG9BNU2HwUytyEAOtVlBSdyOwU+sbsAvNB9Bq11MwYS9q8CB8G1BLIVPQMoqJsBxlus/DzhYP7CCEcFyOExAXCHiQOT8VMHyIfNA
lpc_rms=-32.54
offset=1117
sample=Clarinet_staccato_PP_G#3_RR1.opus
</region>

<region>
hivel=127
key=G#4
lovel=1
lpc=ogrmQoOqVMO8kexCennHweFXbEFTouA/oZjTwJe8CcH/8EZBJiCQv6ypEr+mnrLA4PWgwJhiG0H17hRA5DMtwWYPQEFjwU/BZSaKQS0XU8EsaBhB1nP4v7xTkMGpzphB
lpc_rms=-29.98
offset=1027
sample=Clarinet_staccato_PP_G#4_RR1.opus
</region>

<region>
hivel=127
key=G#5
lovel=1
lpc=B21nQsRO98J9r81CBzpGwgQFekHTx1NBFHiEwQdlX0AuyypBUtOiwWUSwkDzxU5B3RRiwTSLFUGqRlNA8pxtwECB+8DvGqU/EUwIQSJlDsHZhCNBZxqjPuJzgcATmjbA
lpc_rms=-32.85
offset=3852
sample=Clarinet_staccato_PP_G#5_RR1.opus
</region>

<region>
hivel=127
key=G3
lovel=1
lpc=rjRHQq7MU8JEQ0dBmzTrwKO16D4D7YLAyf9fwERMh8Cx1o9ARc03QImiub/2azBAAMJzQCfJiMDLUaq/XzaYQAgnhcBIe/s+5HcaPy8Yr71s47s90OOEvpBnUD+NLANA
lpc_rms=-35.29
offset=1235
sample=Clarinet_staccato_PP_G3_RR1.opus
</region>

<region>
hivel=127
key=G4
lovel=1
lpc=xPrPQmj2L8NWdKNCUufqwJAZ/z4suoZBys3TwbyNP0EgbuE/iKyYQDavEj/aARvBUC7mwFx3YkHsAa/AHkZeQBalCUD+5hvBzdAjQcz/Y0DpSmzBrhVpQNfCbcE8/rtB
lpc_rms=-32.21
offset=742
sample=Clarinet_staccato_PP_G4_RR1.opus
</region>

<region>
hivel=127
key=G5
lovel=1
lpc=IbL8Qg/aiMNKbnlDkMzmwg89P0KAlM2/rUcPwrBLtUF5pTdCfDqRwsCySEKI3Zw/pIP0wWhXw0FAxhRBLaLEPkhWj8HiujNBX7ZMQfvaWcG7FLtB+4vcwT6yukFB7ti9
lpc_rms=-25.70
offset=1815
sample=Clarinet_staccato_PP_G5_RR1.opus
</region>
</group>

<group>
ampeg_release=0.8
group_label=RR1_46-90
lpc_hicc1=84
lpc_locc1=43
seq_length=2
seq_position=1

<region>
hivel=127
key=A#3
lovel=1
lpc=Mdj0QWlsj8Iw+ktCXwAbwYf4/0D2mBDBYi0AwDZmmb7u6dpAsaviPizF5cAegL1AghKnwP8a1T1bd2FAlFd5Pzrz4L8VwU3AYNKQQLDfEsBHJce88Az2Pyob97+kLFE/
lpc_rms=-31.07
offset=1361
sample=Clarinet_staccato_MF_A#3_RR1.opus
</region>

<region>
hivel=127
key=A#4
lovel=1
lpc=gzZaQq5GJ8Mx9U5D/QXswiJb0EG3dJjB4QxAQs/sc8KKgW1CqnYiwi+rXkCjxapB35OMwflv5T8DeYBBXNqswbYwMsBIK7VB1IDCv7FVfsFo4tXAVyflQTVEnsGloqxA
lpc_rms=-20.68
offset=2247
sample=Clarinet_staccato_MF_A#4_RR1.opus
</region>

<region>
hivel=127
key=A#5
lovel=1
lpc=fYvsQc4UVcLmnDVCwV6jwfKuCT6PFoRB9qM9wb1LFMFoibhBDj+CwczDpkABLQ1BMrpgwc8nMUDgR1NBNK8/wTBWqkBLvohAMn0mweweKUBSbYxBbJ66wQZfkUGeHyDB
lpc_rms=-24.05
offset=556
sample=Clarinet_staccato_MF_A#5_RR1.opus
</region>

<region>
hivel=127
key=A3
lovel=1
lpc=sLIgQmmGxsJ90J9CzG7IwRZ/FEFtp8o+UuILwXFJkj7BGgVBT42rwAsD6b8CWpRAHLRIwJuBeMAnRu9AQ2ylvzU0h8A5mPO+kAaxQFcWGMBkC6w/agSnv5Qd779Kb9w/
lpc_rms=-30.09
offset=1275
sample=Clarinet_staccato_MF_A3_RR1.opus
</region>

<region>
hivel=127
key=A4
lovel=1
lpc=+NN1Qpt3PsN2EWlDV7cEw6H/00EEsVHAry8IQn4GoMJcjN9C9ePDwpxmbELIV//ByurRQLCXTkFFj2fATWQOwQa5H8FQTMVBHomvv+e0VsGePL+/xZknQQpltcALjOY/
lpc_rms=-20.73
offset=3767
sample=Clarinet_staccato_MF_A4_RR1.opus
</region>

<region>
hivel=127
key=A5
lovel=1
lpc=J06SQgXiHMOf9RdDzgGbwpRPqkG4c5lBBdwewqjDh0GHSP9BQskIwqVVmz+796JBCiqRwcQMiUEBiNq/pAUawb/pv8BNZflBPsOAwbfH58DaAxZBtX4jwf+c9UHrdLjB
lpc_rms=-27.78
offset=2289
sample=Clarinet_staccato_MF_A5_RR1.opus
</region>

<region>
hivel=127
key=B3
lovel=1
lpc=yvfHQYqYY8IwJhpC8gQPwRKcLUG0JAbBWvrcPuvDqsCmJwlBZnWRwIwZxr6jhO8/rOBYP11ghMDnPKlAGzIFwKm5Q78wURjAqDuBQJ6C0b/IJJ0/dWfTv8fLND/7TUI9
lpc_rms=-33.31
offset=886
sample=Clarinet_staccato_MF_B3_RR1.opus
</region>

<region>
hivel=127
key=B4
lovel=1
lpc=5/kyQlar6MK1sO1CYJNNwhqkS0GfpmXB07yEQeFKAcLWLHZCmmxpwvlIokEoHr9AqHAmwTI8+kAbb3W+InUQwI5378C1WRJBUV2TvtKEh0DJpAXBnMRSQDbqk791IElA
lpc_rms=-20.43
offset=1175
sample=Clarinet_staccato_MF_B4_RR1.opus
</region>

<region>
hivel=127
key=B5
lovel=1
lpc=t5WZQtkMG8MzMx5DdemrwhnAT0GdX9BBq3OFwFdPIcLRpoBCeJQHwoWRZsAE/KxBi4pBwdqQmUA0r3nAjWSyQQnkmsEwdxTB01IqQooTAMJrhMTApCNBQoxOTMKQgl5B
lpc_rms=-22.01
offset=554
sample=Clarinet_staccato_MF_B5_RR1.opus
</region>

<region>
hivel=127
key=C#4
lovel=1
lpc=vWMhQs15y8LNMqxCLv65wZHC3T8yiLy+XA/vwKspaz+3Uw9BciLuvrRK28CWUUc//NNfPzTjtMAx5DRBgxKKvzaSE8EIchRBM1DdwF+SxT++3IY/ZqRnQGyFlcCbAt4/
lpc_rms=-29.41
offset=561
sample=Clarinet_staccato_MF_C#4_RR1.opus
</region>

<region>
hivel=127
key=C#5
lovel=1
lpc=M63cQWMCosKc1cxCaM+DwiKjvEG+8wPBJj3GQB9JE8ELHIBB2QpPwZdt30DlspvAadqWwBg6XEEyknjA/pXwwEXkaEBPZTG/gfSsQIiJJcBraO6/4sYxwBvd7UBF6nHA
lpc_rms=-26.64
offset=715
sample=Clarinet_staccato_MF_C#5_RR1.opus
</region>

<region>
hivel=127
key=C#6
lovel=1
lpc=baOsQs9lEMOiQPtCu/aJwqzxO0LMQObB4e0oQucPL8LRH1FC9drLwfSbb0GZHmC/+EBFQfj9ZcAo7lVBMNQ+wXdGAkLqjArC08hAQsCxFcKIEjpC6wCUwp6VW0Kz7tbA
lpc_rms=-20.17
offset=746
sample=Clarinet_staccato_MF_C#6_RR1.opus
</region>

<region>
hivel=127
key=C4
lovel=1
lpc=z+N7QlzVL8NR/TZD4a/EwiOkGUIvCV9AxjwAwkMcuUFhPJpApTBywU9G70A/expAUmMmwUiIOMBORcRBoLW4wa4T4kD3MhK/q49JQMha9T14tmLAft4GQaN7XMFu+uBA
lpc_rms=-27.71
offset=999
sample=Clarinet_staccato_MF_C4_RR1.opus
</region>

<region>
hivel=127
key=C5
lovel=1
lpc=VQnFQfYZjsLBLaRCvng7wuqfdkH47+nAbwbLQCc7DsG+qXxB7l5TwbcfCUClOqtARNeowL4QQsAvQ/tAeMrZPlP86MDVj+E/pv9rQNoNMj79cxHApVfEP4eCJ8ByyOk/
lpc_rms=-29.64
offset=1260
sample=Clarinet_staccato_MF_C5_RR1.opus
</region>

<region>
hivel=127
key=C6
lovel=1
lpc=wbBGQpq3rMIHVo9Cm1wIwpesskGyr5jBSgHYQd9gGcJYHj5CHjO6wTXyFsAUek1BDJI2wJxsob9aNhpBysF0PfKussES8TBCXooMwvqHu0H/iWHB9e2BQT0v0MEgZWRB
lpc_rms=-22.07
offset=441
sample=Clarinet_staccato_MF_C6_RR1.opus
</region>

<region>
hivel=127
key=D#3
lovel=1
lpc=hNH3QWZuqMJIMqpCdeMiwpsyh0GmfGzBEYfkQO7aZMDH84VBsO6swcv5IUE3M2zAchQAQKGB6T7ke+4/FtxswNFKScAKpBlB7N24wHlrAkCCyjfAmayjPh0QJEAcApy/
lpc_rms=-30.59
offset=1694
sample=Clarinet_staccato_MF_D#3_RR1.opus
</region>

<region>
hivel=127
key=D#4
lovel=1
lpc=Sp7oQaJ9l8KTqZZCdh0cwlinEkEwloNBbd/nwSK/qUFjeN3AyFHuwFNARUEa/rTA3YasP67jl8CkMgZBoNEzwLglucAXocxABadRwOTiO8Dg3ORAnG9ZwA8F2jzMF9w+
lpc_rms=-34.07
offset=601
sample=Clarinet_staccato_MF_D#4_RR1.opus
</region>

<region>
hivel=127
key=D#5
lovel=1
lpc=Db40Qipc5sJ5s+FCHfw+wkq0M0FGwxLBROeMQMofckC8yRxAjRAgwfBJ+kAXEa0+vXHxwNFN4kBy1VjAsHzGQMabPsBEtsq/xCeEP1oj3MB7U2RBpqiQQGU+zcE0S4BB
lpc_rms=-24.94
offset=1207
sample=Clarinet_staccato_MF_D#5_RR1.opus
</region>

<region>
hikey=D3
hivel=127
lokey=C#3
lovel=1
lpc=D4E9Qj49DcMf5iRDaRzOwuhjPkIUPkjBcG6iwaKN0UHCSQY++yKFwXCfIEHZ94bAsXDGPnrlVkDGsW6+ypVLwO7LK0CSJyTAcjUeQKgdU0BgNvnA0lEXvvb79UBckHfA
lpc_rms=-29.91
offset=5162
pitch_keycenter=D3
sample=Clarinet_staccato_MF_D3_RR1.opus
</region>

<region>
hivel=127
key=D4
lovel=1
lpc=WLLHQXHXbMJGOzdCZyUqwQnVkkBAXQLBYFBoPqW9J0BlL4ZAKn3PwNSm2b6gajFAkghcQLBvjcDX+QlA9Rs4wM5/W0ATWoPAhIuqQPGVgMDJSKo/HM+fvjlA9L/8GgxA
lpc_rms=-32.26
offset=799
sample=Clarinet_staccato_MF_D4_RR1.opus
</region>

<region>
hivel=127
key=D5
lovel=1
lpc=tSb0QUdjkcLsGH1CAjzBwY26CUFk1MzA2dZ8QHvg1cAFZThBIvUYwSNKgEAAfQFAsuiSvZLBIcHjxS1B/V7DP0v+z8Cqeoi/PhXbQEcpMcA7X7k/gUUuvyoEw8BIwcFA
lpc_rms=-33.20
offset=839
sample=Clarinet_staccato_MF_D5_RR1.opus
</region>

<region>
hikey=G7
hivel=127
lokey=D6
lovel=1
lpc=Y6pSQj2Hp8IVDFBCiVkmwYeywkCy1QdAmS2HQItpCMGLa49B+UHWwC0+3D+d06ZARIe2ve/Ysb6RPQJBqPKDQHV0NcGn/YFBD+K4wKIJ90CE86XBhkNtvy2eBkLdPpnB
lpc_rms=-18.31
offset=1115
pitch_keycenter=D6
sample=Clarinet_staccato_MF_D6_RR1.opus
</region>

<region>
hivel=127
key=E3
lovel=1
lpc=h9bGQSyzeMK7SllCzfV9wcE3cEBQRzPBhFf7QJHoqMC4ElhBS29JwRTrxUDjKaHAULMSQCwS5z12Dtw/I8M4PTGLm8A3Ro9AZbkbv4vFxr5/Gj6/UwnhP2VbDcA42Mc/
lpc_rms=-29.59
offset=1778
sample=Clarinet_staccato_MF_E3_RR1.opus
</region>

<region>
hivel=127
key=E4
lovel=1
lpc=lqZLQs7a68JFXsJCk24qwtj2bUH3+wZBqFaDwQR1q0DaubBAOawSwQ6i1EAaWO0/vU4iwCYhC8ENP4hAScHyQBVV2cDuA+U/4mW+QL8MRsH9cBVB7cCMQLQYe8G5rRZB
lpc_rms=-27.43
offset=1001
sample=Clarinet_staccato_MF_E4_RR1.opus
</region>

<region>
hivel=127
key=E5
lovel=1
lpc=VQFaQgvFGsN5UjFD+Y+vwqq4fUDffmVB8YXev+btg8F27h9CKSMowoHTlkGBvgpAiGZRwbwVs0Hev1bB7CmTvzl958CPWZ5B1OncPmMWxsHy6WFB77OnQRxdC8JXJoxB
lpc_rms=-23.94
offset=3778
sample=Clarinet_staccato_MF_E5_RR1.opus
</region>

<region>
hivel=127
key=F#3
lovel=1
lpc=Ius4Qs4S4MI7U8BC5sQSwuihYkHL1QrBbw7cvxOiLcDqmWRB5PfwwIC7EcAQ7jDAqYqkQNwS4cBtcxZBkzIFvz+cOsDBXhPBNzRbQbah4MDOpUhAL58MwE20IT5Fvak/
lpc_rms=-27.29
offset=1596
sample=Clarinet_staccato_MF_F#3_RR1.opus
</region>

<region>
hivel=127
key=F#4
lovel=1
lpc=2P9aQgzx6cKm7LBCkun8wRwAf0ExGcPAGpdzwerQzkCTJ9dAx+OFP2m69UAcvhLBGS+RwCqWg0AsJfa+UJMeQSGUUcHj8j7AUp85QUTnRMFVyNtAXtgHQU3fg8Hl7iBB
lpc_rms=-25.21
offset=704
sample=Clarinet_staccato_MF_F#4_RR1.opus
</region>

<region>
hivel=127
key=F#5
lovel=1
lpc=DhUTQpl+sMKFVrlClHs2wmWZCkFMh3xAti+aP4wrSMF5mKBBlJKIwaHWjUFYZiDBfvEPwBTuMECps8pAIbVXQPGricEKF6dBIQkrwQ9e4MC1fqxBYPapwI67hcH+f2lB
lpc_rms=-23.41
offset=754
sample=Clarinet_staccato_MF_F#5_RR1.opus
</region>

<region>
hivel=127
key=F3
lovel=1
lpc=6NB5QUIO2cE9TA9Bsi2DPy4OxEBoo27AqVziv6ePND1fRDZAVQGPvmVmx7+4fi6/tjXwPgvmnb9jsBU/3NM5QGZZzr9VfcG/J12JPkl4Jj+toSE/bxiMv56QRz/Az7S9
lpc_rms=-35.40
offset=1186
sample=Clarinet_staccato_MF_F3_RR1.opus
</region>

<region>
hivel=127
key=F4
lovel=1
lpc=GcsFQliKmMJ7CHBCF5nKwZQAiEH7uo3AjqUOweybiECAkpW/lka1QBKhkb9pDOK/i5mkwAl5iz36VxtBAjxwwA3kqcAO2AhAgiPtvzjdHkEH/QHBTOOwQFXSEcGsYrVA
lpc_rms=-30.25
offset=491
sample=Clarinet_staccato_MF_F4_RR1.opus
</region>

<region>
hivel=127
key=F5
lovel=1
lpc=9oewQhC0UcNo4kJD7xuXwgKHYkFmWSpAMB4UwQkcTcFvLBpC0lDRwTS2hkGh86G/WRS/wRnaRkGLdqJBXKklwJoOkMFC+xJB4W1PQKyXFsHfG1BBiFKSQfUxN8IKD+9B
lpc_rms=-24.64
offset=1539
sample=Clarinet_staccato_MF_F5_RR1.opus
</region>

<region>
hivel=127
key=G#3
lovel=1
lpc=9/PIQX7aacJkPC1CeiNTwQ0AQUG6JDHBud26P4Yvl8DEmB9Bd0zBv7F4JcAJalE/epcRwIRBKsCTL+FAIetrwI2UBj+MryG8sMhoPs9kHMAXAa1AbQlAwHDfUL+Cxzk/
lpc_rms=-29.62
offset=925
sample=Clarinet_staccato_MF_G#3_RR1.opus
</region>

<region>
hivel=127
key=G#4
lovel=1
lpc=XW6mQvQPP8PEnxNDCRsZwrV9d0FaWmnBeWBbwN457sBlWoNBp97mP+bFGsFT6JZA0J2qwB1/8j/DJxZA1UVLP24/G76GRZDAAw9oQP5D4D+HQ5/AuEexQP1hH8Eqfh5B
lpc_rms=-25.59
offset=913
sample=Clarinet_staccato_MF_G#4_RR1.opus
</region>

<region>
hivel=127
key=G#5
lovel=1
lpc=rzQtQsbGssInV8VCBYpUwmTtykCVwqpBYAgVwfQaAMFJPPRBKJ4mwvWPHkKiCwK/RRkJwuhhOUJ0zJ3BsYz0wOa/w0FJ8IfBANubQTF8ccE7fOM/HRfBQcRv0sEqz5FB
lpc_rms=-23.70
offset=309
sample=Clarinet_staccato_MF_G#5_RR1.opus
</region>

<region>
hivel=127
key=G3
lovel=1
lpc=Cx1RQrTD8cKg8rFC8rXIwUO/Z0EKkyfBHRgNwE12FEBmLrdAXs+NwD58CL9OEKDAYx/9QJ+jJ8F+jDZBcoWQPw6+CcEM9Ic/UbwLQFjDGz4ckC8/VS8FPxIwHb8DEWm+
lpc_rms=-27.36
offset=1492
sample=Clarinet_staccato_MF_G3_RR1.opus
</region>

<region>
hivel=127
key=G4
lovel=1
lpc=IoxBQqDi5sLVVsBCL8PEwUH0wj/CwQ7B3NGbwH+wQ0HEfsJA9T1LwYmtxkBal+TAuuzIQAFBZsAVtu8/Ht+LvpJPi0BPRq/Aal1qQIT7+cDxHAVB6N2TQC1FmcEH8lVB
lpc_rms=-25.73
offset=635
sample=Clarinet_staccato_MF_G4_RR1.opus
</region>

<region>
hivel=127
key=G5
lovel=1
lpc=lFyQQp8kQcOQZFND2crNwrs2w0FrKjXBRQrSwMQnl0E4+JZB/iVEwgGNCEIt1Su/qleGwZZzOEGUMCxBs8UCwRAqHMFOvwhAOmd8QdEIH7/L1Q4/myMRwuWGRUJJl4/B
lpc_rms=-24.76
offset=1227
sample=Clarinet_staccato_MF_G5_RR1.opus
</region>
</group>

<group>
ampeg_release=0.8
group_label=RR1_91-127
lpc_hicc1=127
lpc_locc1=85
seq_length=2
seq_position=1

<region>
hivel=127
key=A#3
lovel=1
lpc=QSx1QfidFsL/j/pBgXfQwJ/8CMDRX7+/ppgQPiMkE0DowwFAm8h4wIO9Cb/jpktAfVAGwFvc0T4jZPi/9J+pQD/olcDdrQhA+9X9vXU2F8D5PipAS2QOv5AqqL4on8M9
lpc_rms=-27.60
offset=999
sample=Clarinet_staccato_FF_A#3_RR1.opus
</region>

<region>
hivel=127
key=A#4
lovel=1
lpc=JHxtQQlq88GCEpVBMP6Wv4GidEDwgqjA3bq+PhWyUcDEF4JAE/FoP2p/K7/lj6S/NcIEwHgGb0Cmou6+b+w0u99/dsDPYEFAYMWZP/NJaz6RFSm/BPE9v/6Cdb9d2/M/
lpc_rms=-24.08
offset=654
sample=Clarinet_staccato_FF_A#4_RR1.opus
</region>

<region>
hivel=127
key=A#5
lovel=1
lpc=DnSuQRdpzcFQ4ZNBufm9v90M6T+V9ilAz1kFQDFpzL+HMxdBo1CPPgpPmL/YeqU/o/j0QKxGIcAYGbxA1Y9swJAmv0BgMMpA9IUgwDhmYT65NsNANsWOvypvvkDQUL2+
lpc_rms=-16.65
offset=716
sample=Clarinet_staccato_FF_A#5_RR1.opus
</region>

<region>
hivel=127
key=A3
lovel=1
lpc=rChLQZDAwcH3VVBB5A4vwJuTgkDimirAOKzgPkYVVb8XWYE+bbZpP5JOU78Y5lg+nIBvv08TQz9/bjM/wnNHv81Tpb+8iq8/wOQGPz7b9b4QPqm+FIBqPYI3kT0TyIA+
lpc_rms=-28.80
offset=1230
sample=Clarinet_staccato_FF_A3_RR1.opus
</region>

<region>
hivel=127
key=A4
lovel=1
lpc=IeqrQQRVR8JimyNCpBgRwTSpQ8AiKgbB2RWKQfGhhMEf0qFBlZyMwQqS00Afrl3AMgBCQJbtDMBwElE/24VLQFdylcAcIDlAgznOvASLA0DgBMDAVAOvQLyThMDdnixA
lpc_rms=-19.24
offset=1167
sample=Clarinet_staccato_FF_A4_RR1.opus
</region>

<region>
hivel=127
key=A5
lovel=1
lpc=sBECQoeyV8JvCBVCbUHkv4OA3sCML+VARtwbwEyFesBlIYlBM0FcwaQmFUFdUH3ARm1Evw9XOkE2KwvACJUfwYzcKkFWso1A0gXWwBeqBUE/vZPAQjxBwAS4gkGObQXB
lpc_rms=-18.58
offset=974
sample=Clarinet_staccato_FF_A5_RR1.opus
</region>

<region>
hivel=127
key=B3
lovel=1
lpc=69SbQd7nSsK4+kFCdzSWwfvTkED2B+vAiUcyQN1Yk0D8DQQ/0QK5wAs61T62S4BAoriHvnzpkMCB/TJATVcSvwnTzj+ty9W9mHIQwPBgzz/IQ7u/n9gRQKWqp79F4Yc+
lpc_rms=-25.86
offset=904
sample=Clarinet_staccato_FF_B3_RR1.opus
</region>

<region>
hivel=127
key=B4
lovel=1
lpc=raeMQU3oG8LUnf5BDsRDwQ04EUFtOCLBLhS6QJLh5cD7hS1B+3u9wIjhuD94H0zAn2kkQCDMor0RgMK/8mOOQIjup8CEz8U/syEUPg64ZEAFJafAEIqPQDAEYsAepRBA
lpc_rms=-21.01
offset=797
sample=Clarinet_staccato_FF_B4_RR1.opus
</region>

<region>
hivel=127
key=B5
lovel=1
lpc=K+BkQgEaosJUnIlCPPEdwqYn0UHlS7PBc93lQatXAcLs79pBJ6wAwRZbUsA1qqxAyLDkvgoa2T8O0xHASuNVQGHp6kCLeqTBJuDfQflVmMGDsz1BhmYdwfhcj0GMhNPB
lpc_rms=-16.94
offset=1016
sample=Clarinet_staccato_FF_B5_RR1.opus
</region>

<region>
hivel=127
key=C#4
lovel=1
lpc=+rscQhRJ6MKAe/xC059jwocFYUH1WmfBBYcdQfSAxcDAzTVBb1Hov1BaDcEsjS9A8VJmwOsi0kAd35lAlF8KwamHAcDjZbdAOebZQNeVjMF90v9AJkrnQJcXAMHPavY/
lpc_rms=-22.07
offset=908
sample=Clarinet_staccato_FF_C#4_RR1.opus
</region>

<region>
hivel=127
key=C#5
lovel=1
lpc=GrgXQdXYpsFGrYpBXk+awORMYj99D4DAwIFEQDVEx71Vc/W8Y1wYP500I8CF0TlA9nmfv3uymj8c+s2/bf2kvu5NQT6It+M/LHGCPuZFHsA/drE/AUIvvl/Z7j8UqNe/
lpc_rms=-26.40
offset=1172
sample=Clarinet_staccato_FF_C#5_RR1.opus
</region>

<region>
hivel=127
key=C#6
lovel=1
lpc=be+SQZldlcGiAQtBpA7svv8xRUANELy/aHpcQEqb6zwdpDZAKQg4QLcPHMAR/lpA4x4AQEtGI0CuaJm/Gz78PwiYQEBQGgw/J6glQLqqRr+SWhBA/VfOPifpIsE+bhdB
lpc_rms=-20.26
offset=415
sample=Clarinet_staccato_FF_C#6_RR1.opus
</region>

<region>
hivel=127
key=C4
lovel=1
lpc=2j64QYWPacLDjlhCA7y7wVjD7kD3ZX6/2N09wBG7lL5JKqlAzq1UwL+NOb/09Yg/HG42wJdFi0AMODPANA0nwPzAiUCVh+0+AOQXQA8by8ASkA+/5CCsQBwmS8CBg4o/
lpc_rms=-28.37
offset=627
sample=Clarinet_staccato_FF_C4_RR1.opus
</region>

<region>
hivel=127
key=C5
lovel=1
lpc=FJEUQXvun8EOyqVB/rZewWT27EChMJjADX6FQA+0jMB02oZAsEnJv7uzhr8377g/VLlCP7kWLMDupks/FQ7zP3G/BMAn144+t8RCP2/9oz1MRyE/5fuHv+INsj89o9m+
lpc_rms=-23.50
offset=363
sample=Clarinet_staccato_FF_C5_RR1.opus
</region>

<region>
hivel=127
key=C6
lovel=1
lpc=9s6SQaC7zMEWMJpBmwz3wNSBkkCkSBvAgG3vP4crEb6gYDBAEI/wv815Aj9WGCBAodg1Pv25r7+QKtk/Ggw0QEveMcCxh9w/cOCOP9pBJz8fJo+/8RqeQBrPLMEckYNA
lpc_rms=-21.12
offset=363
sample=Clarinet_staccato_FF_C6_RR1.opus
</region>

<region>
hivel=127
key=D#3
lovel=1
lpc=5Y1pQSkEFMJIaRJCeyeJwTNPk0Czk53A4wmYQJXk3r/2DpdAcv3lwMIDAkAb41BAFcz8v4IwtL8BofA+E2gWQJdOIsDQWq8+woQ2P8oPAD/z56K/rOEJv8RNuj/1Lbm+
lpc_rms=-27.51
offset=1658
sample=Clarinet_staccato_FF_D#3_RR1.opus
</region>

<region>
hivel=127
key=D#4
lovel=1
lpc=T/kIQt/bz8JqiO9Cc9xqwlQ2kUC3JPtADtwQwQEOM0G5zO/A0wuoQEXV6sC6I4NASEVNQNOGJsEwC2ZBuWxFwTzKskBD2DJALWvsPwKwlMEnFXJBcGIaQeCIksFu3OBA
lpc_rms=-23.83
offset=606
sample=Clarinet_staccato_FF_D#4_RR1.opus
</region>

<region>
hivel=127
key=D#5
lovel=1
lpc=FCwYQSGFnsG9GnJBUhehwAZSakCgQUrAG5y5v4WNJ0B83qU/3XbQv/FThD/hNHq/KT0lv4omij7NmwU/UoHoP3dh5L96mXM+c/Jwv/XxAUBB1Xw+ZKubPsZRhMANNEtA
lpc_rms=-25.60
offset=1320
sample=Clarinet_staccato_FF_D#5_RR1.opus
</region>

<region>
hikey=D3
hivel=127
lokey=C#3
lovel=1
lpc=8UE9QT52x8H+aH1BINMPwMvaJEBmNXTAmoWMvxO8I0A7Ec8/81/mv2sz5L+xBfk/FX4Mv3lZLD6vO4w+rUadvzAdvz+GLne/jnCOPXlOwT+8gcK/K8eLP1dij79KcNQ+
lpc_rms=-28.71
offset=1141
pitch_keycenter=D3
sample=Clarinet_staccato_FF_D3_RR1.opus
</region>

<region>
hivel=127
key=D4
lovel=1
lpc=zXZpQq4hF8P17gpD2o1ewld110FimMnBETm1v8vBbkEEtQVAoHTFwDGOQsF020hBH9+GO8n6rLsKnBLAG7atwCo41UAqFb8/U+FkQEXVg8GZPpZBaWxOwfz13kDc3c6/
lpc_rms=-20.44
offset=502
sample=Clarinet_staccato_FF_D4_RR1.opus
</region>

<region>
hivel=127
key=D5
lovel=1
lpc=M4GMQWKnDMKhkutB7x9MwWpGBEGHiB/B/OioQJOeHD96DV8+2jmFwC9+ZUAbNbU/irGcwPYgm0ATa4vAq+IVQJY7iL/nfpxALWkHwGAgpcAXcdFA7rAXvnhgWb7YJ0W/
lpc_rms=-22.16
offset=1255
sample=Clarinet_staccato_FF_D5_RR1.opus
</region>

<region>
hikey=G7
hivel=127
lokey=D6
lovel=1
lpc=l7G8QXZQ48HcVENB2M5lQJ1jub1SL3U/VWslQB8H0L5yYMw/eTUBQNUBtT6PONs+wnIhQOiJiT9jJf++ZvEyQET4YD8VAW8/xDyHv38IvkBVQx3B1I7uwPY4p0H5hTPB
lpc_rms=-16.81
offset=652
pitch_keycenter=D6
sample=Clarinet_staccato_FF_D6_RR1.opus
</region>

<region>
hivel=127
key=E3
lovel=1
lpc=7lWIQYglMcIaDC1CAOOfwS8ABEFOnenAyBRFQEuawb9x9/pAr8gEwerdcj8xhy5ARTALwC+Ihr8hVVhAjQqyvyQDCz5ZDMW/Ho3ePsUbA0CSBPu/ExMAQGs0GcCjWY8/
lpc_rms=-26.14
offset=1567
sample=Clarinet_staccato_FF_E3_RR1.opus
</region>

<region>
hivel=127
key=E4
lovel=1
lpc=a0uXQVWMRsIPoEZCYLy3waIOsEDOwi6+wTqUwJf2jkDwLJhAOOkVwcXDL0BMeEo/3HPzP7Iqi8CVK+pAk6sKwXErB0CquJ1Azg0/wPxlbj8iiD/AYkY4QP38dL814ZI+
lpc_rms=-26.70
offset=286
sample=Clarinet_staccato_FF_E4_RR1.opus
</region>

<region>
hivel=127
key=E5
lovel=1
lpc=i/yJQXBWEsLLy+1B4qMiwUM9jD8d3kY/cDEIQB4988D7FxtBhCwYwP8aAcANAbS/r3WHQIc+hcBrpnJAGMwWPyTnFsAPboE/VF0WwFU3p0A2kY+/dHjyv9ALFsA80n9A
lpc_rms=-19.54
offset=577
sample=Clarinet_staccato_FF_E5_RR1.opus
</region>

<region>
hivel=127
key=F#3
lovel=1
lpc=iu6AQSYXFsIvm/JB9mITwYQOm0CgcP7Ao3Q0QMBS6747MFhAWhiMv/0cxL+tUAs/1qI6vsy+Z7+u6lc/agKsPI/BvD5peho/L16mv0tEg7/i3oc/q5xCQO3fksCixv0/
lpc_rms=-28.67
offset=1075
sample=Clarinet_staccato_FF_F#3_RR1.opus
</region>

<region>
hivel=127
key=F#4
lovel=1
lpc=guOGQdZzMsJvKztCZpy3we4GtkDeRGvAZL2XPxhYKEDThIc/JSLCwL+EmkDhw7m/hDLbvmlwrj8z/Xg9JdxawE9Phj/RY7lATsyWwFLkGMDXLYg/yjrEQDeix8AyRgZA
lpc_rms=-28.05
offset=397
sample=Clarinet_staccato_FF_F#4_RR1.opus
</region>

<region>
hivel=127
key=F#5
lovel=1
lpc=lTWKQRo2BMI0DNlBxkAWwRBfJkBxCorAJbDcQGTQ/sBQDhVBlRTqv2qxgsCRbjRAW2w2QKAKosD3tZFA4OU4vwHAFEDKeE/Aw+z/Pp59+D8G9zk+O0iRviNFmrx1wQRA
lpc_rms=-19.49
offset=896
sample=Clarinet_staccato_FF_F#5_RR1.opus
</region>

<region>
hivel=127
key=F3
lovel=1
lpc=/geJQe/KLsIw3h9CP29vwStmqUCxh6nAaXIKP3AnIb8l87NAGtoFwC45W8CwCRlAy+A0v+GxJsCJibFAOBFbwL58iz3L4v0/zxXyv9VzSD4+4Js+AThUP7n1u78QlQg/
lpc_rms=-29.43
offset=1143
sample=Clarinet_staccato_FF_F3_RR1.opus
</region>

<region>
hivel=127
key=F4
lovel=1
lpc=1zbfQTTsisJ8l2lCT2hSwZylrL6j1NvAlmEhwF8qRUHItEnAbD6WwKC9ED+54BhAEYBYvht5LcAh+6JAFVGHwGlnkj6m7Fs/pHSBPsr+sT5SENK/VjKzQFQgJcHC48VA
lpc_rms=-24.54
offset=767
sample=Clarinet_staccato_FF_F4_RR1.opus
</region>

<region>
hivel=127
key=F5
lovel=1
lpc=LwOQQe/KG8I5Eg5CUEeQwWRODkHAd9LAPg/tQB4738DUfx5BqUVjwboYNUGMFnK/8w9JwJc0PD55ddU/QUQ/v95mHECVXKi+xxiav6sRKL6vL7w/LBuqvmv5kb9EYg1A
lpc_rms=-20.22
offset=756
sample=Clarinet_staccato_FF_F5_RR1.opus
</region>

<region>
hivel=127
key=G#3
lovel=1
lpc=ycywQWCJg8L3rqtCRB6LwvTsMUJZ49LB5QZCQSpAi8BIlR5Bd5BzwchJ10BC7rhAANtCwUz5XkFsQIfBI2VcQeT4R8Ca4NI/bPHkwKb+vUA5YRHAWhQdQHQwUsAQB9g/
lpc_rms=-26.67
offset=1364
sample=Clarinet_staccato_FF_G#3_RR1.opus
</region>

<region>
hivel=127
key=G#4
lovel=1
lpc=Z7WUQS9hKMJ81AlCaNMlwQ/KvkCC+2DByvVfQVDuGsFb589AiB6NwKZytUByRbXAQQSwPjEWRkAW4Fu8utmzvzpkQ8CvuKVAiZAxwFCwpD/WKf+/4GmtQD6ODMH4zbNA
lpc_rms=-23.51
offset=315
sample=Clarinet_staccato_FF_G#4_RR1.opus
</region>

<region>
hivel=127
key=G#5
lovel=1
lpc=s6F/Qvd478IvBONC0c2DwgO1LUKZbbXBrxLbQduBG8K3QTpCvOXowdR2okErbXxAhi6LwYcIXUEps1xB3+5dwdCVLj93NChBLJlkQRoux8E9AspBD8OLwfODhUGx9d0/
lpc_rms=-13.24
offset=110
sample=Clarinet_staccato_FF_G#5_RR1.opus
</region>

<region>
hivel=127
key=G3
lovel=1
lpc=QMCmQX++U8KXGTxCTCt4wVmQc0AdsrnA8qM5P+Q9+z/OXYpA1PtFwGJKO8BSthC/IutOQGoZuj9MM7TApTlaQFWKMT8sbQG/EJqHPz45HMB+fC8/8xIav2RzFEA4c6e/
lpc_rms=-28.39
offset=763
sample=Clarinet_staccato_FF_G3_RR1.opus
</region>

<region>
hivel=127
key=G4
lovel=1
lpc=MKAFQlt2nMKCEmhCNCoxwbg4U0HwCLjBICK8P9LUzkDbIsBA8DSrv60DAsCVPsjAOKMlvn6eaEAji3ZA9aLVvs8uJcCHonrAATthQNXOKz//aGpA/MsiwCRS8cDYa91A
lpc_rms=-22.87
offset=389
sample=Clarinet_staccato_FF_G4_RR1.opus
</region>

<region>
hivel=127
key=G5
lovel=1
lpc=31SdQQFJCcJTjdpBTU02wdbimUBR46I+XrUVQAEff8Cu8glA+x1gP/wLh0AUEzvA12CPvwIJ1EC2HRPB6AhOQZm9IsGmorBA4VW0P0QFVMBX4/tAfI+qwPCw2790yLlA
lpc_rms=-20.97
offset=337
sample=Clarinet_staccato_FF_G5_RR1.opus
</region>
</group>

<group>
ampeg_release=0.8
group_label=RR2_0-45
lpc_hicc1=42
lpc_locc1=0
seq_length=2
seq_position=2

<region>
hivel=127
key=A#3
lovel=1
lpc=KGxyQug5E8MkxPJCUQVDwiHCiUFwp9hAuldzwb1rRkBASndB65R0wT+N68CdU5hBHIR3wUimoz/IOLlAJiiBQNamLsHOhg9BDk5av7/0r8ANFoZAUQYqQGbeBMGnfJdA
lpc_rms=-33.60
offset=1183
sample=Clarinet_staccato_PP_A#3_RR2.opus
</region>

<region>
hivel=127
key=A#4
lovel=1
lpc=KYPDQgM7lsNfmcBDKVJ2w4uui0JGXw7BJrC8QSCYR8L8tp5CD0izwhlhWUIOArQ/ibEDwjIiq0HUlCZABj5hQcwsU8IATDpCkXx/wMoBhMEsyCNBBzJawBh+XEAdXxS9
lpc_rms=-22.60
offset=5189
sample=Clarinet_staccato_PP_A#4_RR2.opus
</region>

<region>
hivel=127
key=A#5
lovel=1
lpc=PbOtQstpPMOAzERD4nTcwhJc2kFkoqhBZmcqwszDJ0IvXNi/daU/wrIrjEKcyCHC5wArwNKOskELLU3BTp1iQf8ls8GMIINB/OCXQdroPcJT5zlCay+7wbobm0HHxprB
lpc_rms=-24.89
offset=1003
sample=Clarinet_staccato_PP_A#5_RR2.opus
</region>

<region>
hivel=127
key=A3
lovel=1
lpc=ku+TQlK8NcO5+BpDwzWCwtGpcEGX3mVBtJYPwea4lsBHxf9AtikTwK6/IcGuIzZBKhnOwINR68DfakNBgPmdP6yC4sDNSfS/ekpEQW9+/sBoYwjA2liPQNfSbMBrQPc/
lpc_rms=-31.69
offset=1271
sample=Clarinet_staccato_PP_A3_RR2.opus
</region>

<region>
hivel=127
key=A4
lovel=1
lpc=awz5Qc9ySsLtgPlBVUtOwdTBIb/lhMFA0oyzwNG7LcAICBlBsA+vwOtSkr4NjdtAOqSlwMchwT/H6/6/YpttQJSlg8Dr4em9v0krQEyRLsAn7ntAtNsGwOuz+r3jk9A/
lpc_rms=-40.80
sample=Clarinet_staccato_PP_A4_RR2.opus
</region>

<region>
hivel=127
key=A5
lovel=1
lpc=L9rNQqzhPsMQmQ9DfpYpwvBTP0Hkat9A43qewbjIwUBGj9RBsem2walw1kCjm4BBY26LwfklEkFIW/ZA0DCwwNsruj+RtXNB8Dp3wT+oI0G7EcjASVITQYHbj0FzN57B
lpc_rms=-27.07
offset=1495
sample=Clarinet_staccato_PP_A5_RR2.opus
</region>

<region>
hivel=127
key=B3
lovel=1
lpc=5C4cQlqtpcIIhj1C2on9wF4XK0FDoqDAX6TNPxnSY8DF32xAujokv66r6MCJWNVAR4T+Ph1DGsGO/QpB6H9uQJkkGcGGcrJAljqFv4aDCUAnoJO/yYG9PCCcZcBPSTNA
lpc_rms=-34.36
offset=692
sample=Clarinet_staccato_PP_B3_RR2.opus
</region>

<region>
hivel=127
key=B4
lovel=1
lpc=Rr/uQkOsncOcKqBDws4hw+A2QUKVPSNBOGC+wRs21cCyPcdBn1XZwb7l4kFs+uvAEIejwUJwF0EtZJlBFzt/wUqKkMAqTbNAd+5xQcBvlMHJW6ZAxppywBwGokC8Kog/
lpc_rms=-24.23
offset=2782
sample=Clarinet_staccato_PP_B4_RR2.opus
</region>

<region>
hivel=127
key=B5
lovel=1
lpc=QRQUQ100ncMf7YxDiIP/wm7wB0KbT7BBBT4vwrZQZ0CKiJlC3s20wolIREK4F9tASXLywXn/AkIX4bfBLf4WQmvv58G+QbDA0C3pQXfqD8GCu0NAvye0QZHUhcK9xx9C
lpc_rms=-24.70
offset=618
sample=Clarinet_staccato_PP_B5_RR2.opus
</region>

<region>
hivel=127
key=C#4
lovel=1
lpc=ROKEQm6aBMMuUKpCloMCwj7klT8MNeRB7/Oawd9J30BTQaNAlYoTwT4ihz+wlC9A9QqewAD4vsCGCbdA9acTQDP66r//5INAXRuwQJqEVsF3GAtBySyRwBcIYb/5mDpA
lpc_rms=-34.24
offset=556
sample=Clarinet_staccato_PP_C#4_RR2.opus
</region>

<region>
hivel=127
key=C#5
lovel=1
lpc=hu/vQdJseMJae0FC5jKWwQmm30CgcAQ+zDUQwOirgMABHM1AXtOGwEKhPECiYI0/8iddwBQCib+BYOo+BFOiQLYDlcDBlc4/T+ANQEjWIMCSCuw/fsZyPyFZdb/4Tb0+
lpc_rms=-37.86
offset=524
sample=Clarinet_staccato_PP_C#5_RR2.opus
</region>

<region>
hivel=127
key=C#6
lovel=1
lpc=A65aQmh3z8JDeaVCR8vcwXBkU79BT+dAM9yLwO/llL9pXhdBZp+mwG/X2sB5v0pB4CWxwAFe/j/PS0g/yI6Gv9Vmkb819ZRALpeBP2VA6MCkOBdBw17mwfJ33EGWLgjB
lpc_rms=-23.30
offset=540
sample=Clarinet_staccato_PP_C#6_RR2.opus
</region>

<region>
hivel=127
key=C4
lovel=1
lpc=UL+3QswxNcNKNcdC6ZfVwdSZLkGDBQZB9/NrP8wBkUD16MtAEf8pwXJtQsHCPY1BhboxwW6ETcF94UpBpqMRPjpOnD8FvzhAvl8GQbz30MAKuPHAGfjyQHiwecFAH0JB
lpc_rms=-32.80
offset=631
sample=Clarinet_staccato_PP_C4_RR2.opus
</region>

<region>
hivel=127
key=C5
lovel=1
lpc=Up6EQgmVG8MufQVDbZ5kwoXRQ0GJaINBH5iWwdt5HT4Lf4RBXzONwRztiUBPjiNB8V8nwSgrEcB/ZBo/6ydiQR1tScFClxa96eQMQfnaw8CpaCA+cd4BQbTqjMHeEzpB
lpc_rms=-32.22
offset=1083
sample=Clarinet_staccato_PP_C5_RR2.opus
</region>

<region>
hivel=127
key=C6
lovel=1
lpc=AuiRQpHBCsOR1dlCKd5owhYTkUFFMoRB0mfMwZfBrEBdzd1Bw4YLwoRLikEOgiK/WhtVwQ/FYUE8UoK/JC0HP325NUAFgxDB3wIZQdu95MDxNKnAS7ggQW6SqsH+uYNB
lpc_rms=-31.63
offset=573
sample=Clarinet_staccato_PP_C6_RR2.opus
</region>

<region>
hivel=127
key=D#3
lovel=1
lpc=FkmhQVLn+MFTwwxB9BmMvz59sECi+CLAFmydv/0ZEr89ZIJAYrPIviNX4L4RGjG+P0ryPsCsTMBn0eQ/g6+Xv6URoD+X3ui/J6YGQNxXuD7uUqQ/8E9bv++nsD8JtxPA
lpc_rms=-43.34
offset=2526
sample=Clarinet_staccato_PP_D#3_RR2.opus
</region>

<region>
hivel=127
key=D#4
lovel=1
lpc=rBISQmF4esI+uAFCs9aqwNSPJcDqLV5AHkinwACaJkCqRIhAig8MwHmGVT5nkzg/HBnFPixqscDjvSBAImIsQHQ/OcBOS50/1WniPgptMMB7VcQ//62JQJXSysDVaH1A
lpc_rms=-41.15
offset=331
sample=Clarinet_staccato_PP_D#4_RR2.opus
</region>

<region>
hivel=127
key=D#5
lovel=1
lpc=TXi1QsYWLMO7Du5CMdd2wnb37UFtWt1AL+sawXVR+7/SEsxBF7UiwgqkV0FOBD1BHp9QwekQjb8sxrVAovRFQYgYscAOEUVAZ8apwPXVFcDYa6BAPngYwABT578Ptq8/
lpc_rms=-31.83
offset=1744
sample=Clarinet_staccato_PP_D#5_RR2.opus
</region>

<region>
hikey=D3
hivel=127
lokey=C#3
lovel=1
lpc=E08GQo/7ZsLfz2ZBxy/oQJm38ED1FrTAmKUbvyfTIT9PJcpAXWUswA9RbMACpAq+LhqmP5ofQcDOj74+PUZCQIAOVz6dK5W/CyXEPt8AhT9KOoO/bqwaP3kmRL8VT248
lpc_rms=-36.79
offset=1795
pitch_keycenter=D3
sample=Clarinet_staccato_PP_D3_RR2.opus
</region>

<region>
hivel=127
key=D4
lovel=1
lpc=VnBfQiqlC8MCquVCTFMWwkACVEHejfNAqhO5wT75CUHXejm+HmOvwHBxnkCQhR1Bd6XnwHVjCMG8BRdB6qtFQBSUNcES6CNBdtDWwClbcT+BOw9A4qkkviuoB8C5/Ok/
lpc_rms=-33.40
offset=677
sample=Clarinet_staccato_PP_D4_RR2.opus
</region>

<region>
hivel=127
key=D5
lovel=1
lpc=a0WiQZJyDsJ04stBRJhSwS2x6j+1x/U//wIZwIN+XT5cXflAmmDvwONMhkA/G3Q/7+P0vzyE7L8Y1Mk/IXl+Pz8MHcAcoAo/nNbIP69z378ydBVABbZsv7cYrD/0wIK/
lpc_rms=-43.98
sample=Clarinet_staccato_PP_D5_RR2.opus
</region>

<region>
hikey=G7
hivel=127
lokey=D6
lovel=1
lpc=KukvQ8pCscOiXqNDcgYsw74ftkIAd7PBl97iwUeGHkIpXZdBjrAnwiWMR0I6nK7AcmX8wV3HP0ITiybB/+wJQfjJzkDt2jnB8mrFQXt01cFW/gPC+XeqQp6rVsL6FYNB
lpc_rms=-22.22
offset=768
pitch_keycenter=D6
sample=Clarinet_staccato_PP_D6_RR2.opus
</region>

<region>
hivel=127
key=E3
lovel=1
lpc=ZecXQqdJhsKMBr5BzSGcPxD5C0FXzWfAynlMv8Pnvb5lhf1AdiQgwP9o48BATFVAA5QQv8RRJ8BScE6/HJjVQPfbd8CP2oy/WUdXQOjvhD/CWl3AnalMv+uJgUCr/+m/
lpc_rms=-37.67
offset=989
sample=Clarinet_staccato_PP_E3_RR2.opus
</region>

<region>
hivel=127
key=E4
lovel=1
lpc=hF+jQl97IcM8Mc1C6QsPwiWFHkCS0+1BTVKuwTnE8z+uf1dBlypcwbO/i0C1kpDA3eS0QI+xhsFrFV9Bc1m3QCbNecCRR/LAMIprQTM5oMHdzQpBb2Y3QQHfjsFaTBtB
lpc_rms=-32.24
offset=984
sample=Clarinet_staccato_PP_E4_RR2.opus
</region>

<region>
hivel=127
key=E5
lovel=1
lpc=4lvfQgkyWsOuTCRDFlOVwv0N/kFpJZJAADi8wHudTcGumzZCaZMjwrDVn0A7tXpBtE1xwc6q471+9vBAm6d8Qer7fsF0XNdAidhCQfj5msF8+hZB82xMwDrpFsGrXJxB
lpc_rms=-29.44
offset=1056
sample=Clarinet_staccato_PP_E5_RR2.opus
</region>

<region>
hivel=127
key=F#3
lovel=1
lpc=jkQXQjW2EcKJ9LxA5RjtwHd/PECcF7vAdpU4wHDoJsD2EZs+xyGDQKU/Cj9z1BZAQTokQKuOqsDku4g/x6ZmQAqRFz9KhaG8UrZ5Pyop5L/DG8E/zc0ZwOs8OD8M0Sc/
lpc_rms=-39.51
offset=1076
sample=Clarinet_staccato_PP_F#3_RR2.opus
</region>

<region>
hivel=127
key=F#4
lovel=1
lpc=MORjQpM5r8JQMwdCV4RVwT/b0UBunw5BazP/wMpdIkH2ttQ/WT2PwLnDpT/r1JXAsPCrPsKAicBazNa/71+5QO046EDOZA/BTugFQQiBTMAOTPrADiysQJ7WBcEaHiZB
lpc_rms=-34.49
offset=436
sample=Clarinet_staccato_PP_F#4_RR2.opus
</region>

<region>
hivel=127
key=F#5
lovel=1
lpc=kaNbQr2lu8K/LoBCMhYUwnWCIkHZezRBThpmwVcYHEHigkJBbE6LwbEk9UAcgRRBvkKjwX7wF0G8vyHAw+e4QDrnEsF6EjNBtQXMwM2+oz+sxuFA7iPewCsuDEEpmAXB
lpc_rms=-35.27
offset=658
sample=Clarinet_staccato_PP_F#5_RR2.opus
</region>

<region>
hivel=127
key=F3
lovel=1
lpc=sPUvQvhFn8Jb1AxCuNzjwJ4W5kA6Dxy/ALzfPrSxoD+Rge5A8Y5ewHTWbMCVK6U/i5KPwB4mjcDnZI5AcS1IQD9lJ7+aGSHAUndYQE8aXz+3/Ba/SGiavVx+icDFe0tA
lpc_rms=-39.72
offset=357
sample=Clarinet_staccato_PP_F3_RR2.opus
</region>

<region>
hivel=127
key=F4
lovel=1
lpc=P6+SQngFGcNBdrtCiFa4wZCCB0FrpZxBAIeVweLr8T7bR7NAqLQnwdj5/UDxLiPALVpTwKlTA77/SgfAQ0MBQSEpfz8IZxTAZZrHP0kCLMDmebnA6qBbQVyWm8HNlkVB
lpc_rms=-32.56
offset=627
sample=Clarinet_staccato_PP_F4_RR2.opus
</region>

<region>
hivel=127
key=F5
lovel=1
lpc=Ua3vQnTQk8NNOKFDCrhDw2r3iEJREe1AvMquwTP6AkEKIZxB/Q/owSVANUHf/bNB+eEOwjam7kGqzz/BfmMnQYVfjcE6xAJCGJ/NwXIUqUCQnOhAyTJsQSYXHsJ2RvlB
lpc_rms=-24.57
offset=841
sample=Clarinet_staccato_PP_F5_RR2.opus
</region>

<region>
hivel=127
key=G#3
lovel=1
lpc=DCl9Qll9GMNaBwtDH2ypwkmAEUKCgWRBWLKjwdVWE0FzB65As2iMwTVoEEEoH0RAspo8wYFjUL+3qkJB6La2wIqhikBgYA5AVzgPwOoE+MA+17ZA9ovaP3lMn8C8ZjxA
lpc_rms=-32.37
offset=1156
sample=Clarinet_staccato_PP_G#3_RR2.opus
</region>

<region>
hivel=127
key=G#4
lovel=1
lpc=zvHjQgVVU8NLuOFC0S+vwXulu0FMDo6/A1lXwWkYir92QDxBBZuBwLcy1cB5tk7AhfM7wC3fS0F7Tn4/MHTVwOkfH0E+243BDDd+Qe8MIMCJeEDBXuwzQYyPOsHx8mFB
lpc_rms=-30.66
offset=582
sample=Clarinet_staccato_PP_G#4_RR2.opus
</region>

<region>
hivel=127
key=G#5
lovel=1
lpc=FPXUQYdpTcIkPhVCD0qkwc/n6kDnF99A6YsDwat8rkAGWgtAmtnXwLb1PEDGYCNAIfoGwayZoUCr+dS/gfuXQLgzScAke2k/Vs0iQGFeT8AuRQ+/VeBjQBM+mMAprbY/
lpc_rms=-39.91
offset=576
sample=Clarinet_staccato_PP_G#5_RR2.opus
</region>

<region>
hivel=127
key=G3
lovel=1
lpc=cAu+QqesN8OGP+pC0k8fwgZ+eEA5efZAlfFuv5pIssB5nVNB8lOTv6AIF8ETMEhBZx2QwO9ThMHZUTZBJF0AQS3xcsHdxdpA8sDKQJhaEMFbjPa/0IIXQfeNkMCSu94/
lpc_rms=-31.17
offset=1711
sample=Clarinet_staccato_PP_G3_RR2.opus
</region>

<region>
hivel=127
key=G4
lovel=1
lpc=MfWrQv50JsP4O8pCxWq6wXjvNUClbcdBbHUJwkbXi0E3Bg/B43OZQJ3IFUESKnbBaPCCvuBuDUFh4gLAeOMjwK0bq0B130LBxSSUQdXhDcGTsKvAvxpDQQz83cGqIbtB
lpc_rms=-30.56
offset=493
sample=Clarinet_staccato_PP_G4_RR2.opus
</region>

<region>
hivel=127
key=G5
lovel=1
lpc=zosBQ0W9j8MEz3pDOvjpwqtgVkJfiuPA/qHFwf5Yx0DOtT1CB/6Kwr12I0JhUSZBG8P7wSJ/RUF5Rq9B1BZvwXaM28APjj1BlB5MwKVb6cBiQKZBHHe+wdL/AUK+xI/B
lpc_rms=-25.92
offset=1549
sample=Clarinet_staccato_PP_G5_RR2.opus
</region>
</group>

<group>
ampeg_release=0.8
group_label=RR2_46-90
lpc_hicc1=84
lpc_locc1=43
seq_length=2
seq_position=2

<region>
hivel=127
key=A#3
lovel=1
lpc=lzEOQr/4t8L5tKFChIzPwbZ830Ad8XbA1LwfwcgOEUG8xUFA79xRPkyzAsH9CPRAhsKcwLc62r+yvLxA2Q7dvn86KMAMp8i/zcFOQLtu0L9hyQm+Nn8nPruO0T8Kj4G/
lpc_rms=-29.90
offset=1176
sample=Clarinet_staccato_MF_A#3_RR2.opus
</region>

<region>
hivel=127
key=A#4
lovel=1
lpc=gclJQqiRF8NfKTtDr7PnwgcSEkJbRSrBCLiKQXUBPMJzo6ZC/lKwwgAhbkKQ74zBQGjFwVzYKUIm8rvBNVYMQerZyMGkYQZCd2F6wQPP8kDJJXHBvdUWQWtMh0BfBWbA
lpc_rms=-20.84
offset=3238
sample=Clarinet_staccato_MF_A#4_RR2.opus
</region>

<region>
hivel=127
key=A#5
lovel=1
lpc=H6H6QXvCUMKCPElC+GnzweJZlUGA+F1AfbuYwAo10cDiPalB4dmOwUmOokGHXgTB6WW+v+pJ/0CXg2rA62wvQU6chMBCYT08z0npQJM3WsFpaedBYqWhwSaIKUH6gOe/
lpc_rms=-24.63
offset=710
sample=Clarinet_staccato_MF_A#5_RR2.opus
</region>

<region>
hivel=127
key=A3
lovel=1
lpc=u0cQQnbXysI9/8pCbHYgwhJUBUFWa3rAt66+wEAlOUBwrC5B0msjwZOkFEDY6Ny/nFx0QIMr6sAT5lRBjzo/wYOBCj+DkuE/ZY7WQMOhtsCM/a2/x/HlPoS2KEAI/qW/
lpc_rms=-28.37
offset=1261
sample=Clarinet_staccato_MF_A3_RR2.opus
</region>

<region>
hivel=127
key=A4
lovel=1
lpc=lf+EQoR5SMNFpWxD10n/wgoeuEEL3rjASOMLQsIGj8KGicVCWJK1wrbAW0IXuYHB8BjLwdTgOEKmkaTBwpAFwTzBtMCi+sRBp1pawT190UBcjizBnaOyQB0Hhj+YvIi+
lpc_rms=-20.25
offset=2562
sample=Clarinet_staccato_MF_A4_RR2.opus
</region>

<region>
hivel=127
key=A5
lovel=1
lpc=X9anQhZ2MsNWnB1DNk6PwmJkw0FOW+NA4bPIwTZtp0DP5shBrKTswS9Zs0GX3ITAfU/TwBFHir/KM+hAIcCkQM3bW8HfyrZBHW21wYQio0D7oLdA9v/jP1+iH0E5QIDB
lpc_rms=-26.81
offset=794
sample=Clarinet_staccato_MF_A5_RR2.opus
</region>

<region>
hivel=127
key=B3
lovel=1
lpc=bsILQoZ5wMLET8BCLNo5wpyLvkFwknDBpm6gP3c0CMABQCRB2t0ZwYVwFz+33QZBKCQJwRzErr82cj1BGoMdwfQl0j92IBjAwECYQMORAMA48h8/KePLvmxUnb4XEp0+
lpc_rms=-32.19
offset=1267
sample=Clarinet_staccato_MF_B3_RR2.opus
</region>

<region>
hivel=127
key=B4
lovel=1
lpc=IcZQQkA9CcOnQhFDlUuQwsPg1UFcH7PBXP2cQVFlA8J5EVNCsc0JwrunU8DfkUVB31H/wJpZHEHiqK/AqGWtQBgnmcHYd3lBXETfQBCx8sBnvcC/tUXPvhX5zT/GvxlA
lpc_rms=-20.68
offset=1276
sample=Clarinet_staccato_MF_B4_RR2.opus
</region>

<region>
hivel=127
key=B5
lovel=1
lpc=C7mEQsGtFMN0kR9DI+q7wpGgz0H/BFpAJpuFQdWJR8IAqWtClU+xwUx6oMHs2gtCzNFywep+lsDXip5AFNWrQcIZDsJck45BHhWnQRTmD8ILg5NB+5esQchNI8Ik6oFB
lpc_rms=-23.41
offset=1813
sample=Clarinet_staccato_MF_B5_RR2.opus
</region>

<region>
hivel=127
key=C#4
lovel=1
lpc=8p8JQthVrMLyII9CdW+owfzoKUGH4z7B1zPjP0q3tMB2oi9BzYDXPkKGxMCuEow/0/0fwPaojr/pf+VAliumvmMqfsCqTfu+e9tpQJ3Kz8C8m51AgWQcQFtJh8DBK7o/
lpc_rms=-29.86
offset=569
sample=Clarinet_staccato_MF_C#4_RR2.opus
</region>

<region>
hivel=127
key=C#5
lovel=1
lpc=vV7tQbVercJ45s1ClN9qwtwwi0FObtvAl7OdQPftLsBb95ZAqciUwN9jHEDGv3Q/xZfZwJDLkUBdPghBrYVRwTvqiECok6I/KhgQQE0LKcCaFru//qMyQIoMQb+ht5S+
lpc_rms=-30.94
offset=873
sample=Clarinet_staccato_MF_C#5_RR2.opus
</region>

<region>
hivel=127
key=C#6
lovel=1
lpc=vnOYQpWZ+MIl085CcQFWwjeuBEL4AZjBmeLwQZ+N+cGh1AdC6RP1wAK0t8CYUJVBdZoFwWy2NEG476+/fNLoPwwIZUGGuYzBnqXnQYWnqcF/aO5Bs59mwkL7JUIacmbA
lpc_rms=-21.20
offset=1531
sample=Clarinet_staccato_MF_C#6_RR2.opus
</region>

<region>
hivel=127
key=C4
lovel=1
lpc=ua9HQrO7EMOdWiJD2wnAwu+JCUIRmGdBGKs+whRGBEJcYgdBz+bUwUKZuUEeCkfBrgqxwM5CsUDVFlFBXF+ywaV7RkGNxXlA9TMewd1rIEGuajHBTsQvQU03BcEtxUhA
lpc_rms=-27.87
offset=995
sample=Clarinet_staccato_MF_C4_RR2.opus
</region>

<region>
hivel=127
key=C5
lovel=1
lpc=FWvBQaMBlMKCJrtCM31twv+ThkF3Y1q/RplMQDvoNMEAzZtBz3mAwWc3OEC6wRxByPpawYQ28z/q+SNBlqKCwKab3cBiqJxALoflPz1byb8bZTNAml7GwFRqgkCnYAe/
lpc_rms=-27.78
offset=981
sample=Clarinet_staccato_MF_C5_RR2.opus
</region>

<region>
hivel=127
key=C6
lovel=1
lpc=M5QUQgEdacJunDtCmraRwdIrDUFLXzbAdVIcQZfDhsHqcddBqhp1wcYEoUCHOmZA5hTiP1X7x77b1ylAxKsPQW8RjsEL4sBB22g5wUxyu0Dzhky/pWYNQYy8m8GcsCZB
lpc_rms=-22.24
offset=913
sample=Clarinet_staccato_MF_C6_RR2.opus
</region>

<region>
hivel=127
key=D#3
lovel=1
lpc=hMgLQuFlvsIc971CRyAvwhDMkkHGvIzBORI4Qd9QMMFBwsdByu3cwRY8W0G7B2jA1Svbvqd9GkCyphzAxY7QQPURXMEvlTVBuPcrvmi5tcArS91AYu8LwfI96kCyCxzA
lpc_rms=-31.26
offset=1393
sample=Clarinet_staccato_MF_D#3_RR2.opus
</region>

<region>
hivel=127
key=D#4
lovel=1
lpc=0MzNQeNNeMLopGFCb5zswUGwFkHhxltBg2fAwZaDeUFZtaHAdylWwAPclECNyoq/HOHlPt3xIsAA2a1A6xpvvzV62sBTJMVAy2NiwGAaXr6O42pAlDExv70pAcAxHqg/
lpc_rms=-34.82
offset=742
sample=Clarinet_staccato_MF_D#4_RR2.opus
</region>

<region>
hivel=127
key=D#5
lovel=1
lpc=lRyxQqxGWsOhd1NDfYrNwnUKw0FkkZFB/8bQwXO8Kj2BjiVCjKJZwug/zEEHrjNBiavDwbcCfUEtOr/AjHBWQcXjhMEyFBxAZCq5Qew65sEAPI1B8u2WP8n6r8ENhpRB
lpc_rms=-26.35
offset=1074
sample=Clarinet_staccato_MF_D#5_RR2.opus
</region>

<region>
hikey=D3
hivel=127
lokey=C#3
lovel=1
lpc=qeIyQrGBAMORwgxD8BOhwupJG0JJyJbBp/gYvwuY1j8dyk5BtclowZwD6kBkSi7BY6deQZOY9cB5FFI/6HC0QEhLGsFykKVAPbZSQJ2oucCaAEVADep7wOzvxECKBjzA
lpc_rms=-30.14
offset=5831
pitch_keycenter=D3
sample=Clarinet_staccato_MF_D3_RR2.opus
</region>

<region>
hivel=127
key=D4
lovel=1
lpc=Fjr3QUBXn8KoMZVCjGb7wbV8JUFMnRK/3Vk4wWoQ+kCSpsc/vvnlv+eXY79q9pY/b3Qsvrfivj1ygANAZXxEwCsgxr7eMmQ/FBorQAPHYsD2ChlAiUmSv6NcOcC91EpA
lpc_rms=-32.59
offset=518
sample=Clarinet_staccato_MF_D4_RR2.opus
</region>

<region>
hivel=127
key=D5
lovel=1
lpc=mmIFQpsbwcJnkOpCOt+TwrFqr0G+JXJAjNwFwZMVOb/nG4hBbf+qwX1fOEFCRghA1OAOwW5RRkCVXohAWLExv7X0msC0AVdA80ghQFwbSMDfw2bAmlBrQfp9lcHPKBJB
lpc_rms=-30.71
offset=669
sample=Clarinet_staccato_MF_D5_RR2.opus
</region>

<region>
hikey=G7
hivel=127
lokey=D6
lovel=1
lpc=Rc6rQhYq7sIU+VdCd5LfQMVdM77tOFxA5Q4BQemZ98Bavk5BGDs0QLtu0cAMsztBERxuQCbaAsHLOG9BmMH0P6NyDMHrWJpBfSpjwVtVzkHh6InCJmoZQvEzCUIN4vfB
lpc_rms=-17.40
offset=1401
pitch_keycenter=D6
sample=Clarinet_staccato_MF_D6_RR2.opus
</region>

<region>
hivel=127
key=E3
lovel=1
lpc=4y2zQSMEQcLdh/ZB0V2iwMcw0UCjLwfBLKUzQGmPjMBiJQ1BjaemwECnSkDcTnXAuPh7PyPDg79ss7I/gDs/QI6ooMA/E4ZA9reHwCHidEAOHCTAxB/YP7athb/78Ds/
lpc_rms=-32.98
offset=1482
sample=Clarinet_staccato_MF_E3_RR2.opus
</region>

<region>
hivel=127
key=E4
lovel=1
lpc=QLVAQiWf4MLKFrJC1ZwMwnDrnEEjm6nAFHKkwHAhp79hf89A237DwE2BNEDR/yJAOS5MwPYXecC2G95AFaqBwLkKE0AODRzAecOHQHLL6MCgRgxBaVviP/L6ccF1bxxB
lpc_rms=-27.55
offset=975
sample=Clarinet_staccato_MF_E4_RR2.opus
</region>

<region>
hivel=127
key=E5
lovel=1
lpc=llYVQsqB1MI1hvdC5OOCwr+NL0HoYbu/274TQbf8hMEfluVBjwjcwXfHIEGaXnFAxsQywXjXkUEn0SLBwDKBvwNQEsHceapBz4cZwIRkpsHXv09BWZ1XQV/ntsEJ8DRB
lpc_rms=-22.38
offset=1275
sample=Clarinet_staccato_MF_E5_RR2.opus
</region>

<region>
hivel=127
key=F#3
lovel=1
lpc=v3x4QokNA8M+pJdCgu4bwW27sEEzKJDBvtytvt0NN8FW3FVBxVFFQC7hecClh8nA+IIlQNURlcAp7CtB6IomQMVxM8Cx9GfBIzS3QB1aw0AuUbw/C3MFwEqQisB8WH9A
lpc_rms=-27.14
offset=1609
sample=Clarinet_staccato_MF_F#3_RR2.opus
</region>

<region>
hivel=127
key=F#4
lovel=1
lpc=zfctQh4Es8I3aGpCD2FlwS1XOkGkBQPBFkrywBfuxD6JEBdBwNyevmvPtT80X4C/dXWuwA4NrD+wBhK/tKYKQXf3LMFH0zNATalVPrKCC8DIIZRA+TltQNVKQsH+gwBB
lpc_rms=-27.58
offset=552
sample=Clarinet_staccato_MF_F#4_RR2.opus
</region>

<region>
hivel=127
key=F#5
lovel=1
lpc=cRU3Qogj2cIsUdpCE2QvwgCpmMCiNZNBM5Y+wfLDQsAfmbRBdenUwT/Ml0Hz7Yw/xRFdwWBoBUEeda5ApkBxv+EAA8BrEiHAFHf4QA4h8sBOZAFBTMIZQSeFy8HDK5BB
lpc_rms=-25.15
offset=975
sample=Clarinet_staccato_MF_F#5_RR2.opus
</region>

<region>
hivel=127
key=F3
lovel=1
lpc=aFWFQfE4CMKtspdBMRoxwHId5UAvs8LAoiaFvt+cs7+sIz5Ae2hlP0oXzL9+JXG/dNS3PrXbsL+p/Mo/xRocPwOOgD+fahrA6xwdP6cjL7+AFLg/54Rqv94SDz9JTrG9
lpc_rms=-33.46
offset=927
sample=Clarinet_staccato_MF_F3_RR2.opus
</region>

<region>
hivel=127
key=F4
lovel=1
lpc=/scaQgM5ksIWhyJC3chtwQHQPUEEYWFADbqowBJn3L+egxNAm4rsvxING0AAS60/JG/0wJAAwT92oixAplwvQIzBq8B9WD5AvfZ2vetG3z/ZQUC/00WmP1Ow8cCQZMFA
lpc_rms=-31.23
offset=499
sample=Clarinet_staccato_MF_F4_RR2.opus
</region>

<region>
hivel=127
key=F5
lovel=1
lpc=EzSKQrtJQ8O4knFDSYIbw3jdPkLpQFdB1ELQwRVxY0CyqwBCxRBJwlafSkJ924vBpOX9wTNlQkJ62OXBUzCtQVMJp8Gyox1BOHVcQPsAFUDlq/7B4VaSQuuQk8JtBgFC
lpc_rms=-23.37
offset=1328
sample=Clarinet_staccato_MF_F5_RR2.opus
</region>

<region>
hivel=127
key=G#3
lovel=1
lpc=P5m2QaL8SsIG9QVCcanKwJB310DSlNHAyuEEvx3R3L/aq5FAHYOcPo8JVL/J4aO9aO3gvplNZsBMsRZAWu8AQALKScD2S6hAer6ywGWrPEADEQfA6++JQFMiicDBe7E/
lpc_rms=-29.83
offset=1335
sample=Clarinet_staccato_MF_G#3_RR2.opus
</region>

<region>
hivel=127
key=G#4
lovel=1
lpc=mi+WQjr1IcN7fddC5wpMwVhs3EBX8hPBrp7nwO2biMCoaAlBJBfnQN/EFcHY2KRAFJIQwYgMLUHkTbPAOqcyQGQOocAiKsG+xm3/QGpDFsBhwBq+cU/AwBNV1b/vTAtB
lpc_rms=-25.47
offset=804
sample=Clarinet_staccato_MF_G#4_RR2.opus
</region>

<region>
hivel=127
key=G#5
lovel=1
lpc=1p8mQr9josJZv6ZC/6wIwtr8UcFh0SNCBr/Ywf8HvkAtiptBQcHuwa1k90Ge3Oe/5NG/wc9lE0Iv2JDB7H6Lv7krkUGDHJPBVvTOQQLKkcHeMNA/eSTAQfKYy8Gd35FB
lpc_rms=-23.17
offset=289
sample=Clarinet_staccato_MF_G#5_RR2.opus
</region>

<region>
hivel=127
key=G3
lovel=1
lpc=5i4fQms3qMJCl0BCagCRwI1MMUFWWAXB81fkwLRlIUB8Q55AeXg/QLjGp8B7x4DAkyyEQI2Hq8C12/NAD1EiO27zBL9JvmzA2jhZv4Qqoz+0hdg+N/eSQBBEcMAwrp0+
lpc_rms=-27.92
offset=1711
sample=Clarinet_staccato_MF_G3_RR2.opus
</region>

<region>
hivel=127
key=G4
lovel=1
lpc=qvuIQht2JMPjBQ5DhfNEwjsJRUE9057AyuaQwSFZwkHiws3AHEXSv/auZ0BYWvPAcfEyvzEB7EBvjzfATW2pvi/Jkb64rxZAb+6IQHeMdcFDojVBMiL9QDEJycFUFYpB
lpc_rms=-26.13
offset=518
sample=Clarinet_staccato_MF_G4_RR2.opus
</region>

<region>
hivel=127
key=G5
lovel=1
lpc=3xBzQpv3GsN2FSNDrWeIwnlRgUDKgxPB9RHvQbG+KcIRMXRClRhlwv3b7EFxlhxBb7kNwihN2EHfSfpA7/mbwIyhycHSH9FBt8V+wKPaG0FILvjAD0yUwflp5kEEjv7A
lpc_rms=-23.45
offset=1367
sample=Clarinet_staccato_MF_G5_RR2.opus
</region>
</group>

<group>
ampeg_release=0.8
group_label=RR2_91-127
lpc_hicc1=127
lpc_locc1=85
seq_length=2
seq_position=2

<region>
hivel=127
key=A#3
lovel=1
lpc=6ZyJQXdQMMLcJh5C7Vg0wTWwY753+2HAuf+1P1FyXkAR3pq/qNKGPnIZlMCzGd1AYZSbwJ9brj7lxwk+OPmGQKP9Z8AOW9A9hZn9vteZUj/mCqA+4wpkvrapBT7HUz6+
lpc_rms=-27.73
offset=1260
sample=Clarinet_staccato_FF_A#3_RR2.opus
</region>

<region>
hivel=127
key=A#4
lovel=1
lpc=BnyIQQBrFMJLfMlBUrdXwMe+8UAb8WrBPUEeQWXwIsFqGjVBtnPEwBb8l0Aqd+bAQeoUQP7Sq0BG9mDAImZ0vz6NhMDXwtJABjw/PzdM879vfFS+fIv2vxg+9z+mzPU+
lpc_rms=-23.67
offset=969
sample=Clarinet_staccato_FF_A#4_RR2.opus
</region>

<region>
hivel=127
key=A#5
lovel=1
lpc=sb7iQZ2r+8FWP5ZBKvVaQGTDcTwdFrQ++qnZQF57ZcCKLxRB++cEQH5Glb4MBaM9VyDnQK9BOUAIpM6+RqjnPhcC6UB2PTxAqw2aP/fpNb9eov5AgPe5wCPWbUEfJ8DA
lpc_rms=-17.20
offset=862
sample=Clarinet_staccato_FF_A#5_RR2.opus
</region>

<region>
hivel=127
key=A3
lovel=1
lpc=DKuOQZEAK8K28QhCEOHvwKME0j+4igfBF5oFQW59UMBwhVBAxwqZwDEbxD96WCI/r1ypP4jxIz8RmozA/ITIP0K1oD9b/oO/FEAlQJnvCsA9dVU/KOIPwBI6D0A1XOy+
lpc_rms=-27.01
offset=1024
sample=Clarinet_staccato_FF_A3_RR2.opus
</region>

<region>
hivel=127
key=A4
lovel=1
lpc=KtQkQpKyxcJFtJ9Cka1swQzPwL9yib7BB6/2Qd4kpcGD8/dBbacJwnxsJ0FDbk2+/PElQbZsm8EpC45BphwUwbXQukChFYzAMke+vxj0xUBZPMA/XyIkweaWkkCQ6/s/
lpc_rms=-20.41
offset=1276
sample=Clarinet_staccato_FF_A4_RR2.opus
</region>

<region>
hivel=127
key=A5
lovel=1
lpc=yfSkQc0W8cEAnatBlQhpv9a6UMAJ+E1AeGmZQGfrV8DoNopAzQ9nwJMVJEFGjJPAFbi6v2zE/kBY3Rg/fpGxwPag4UASdZdAsjy8wDWJNEBHvKlAyoAbwLOLKkB7yx9A
lpc_rms=-18.13
offset=278
sample=Clarinet_staccato_FF_A5_RR2.opus
</region>

<region>
hivel=127
key=B3
lovel=1
lpc=v9OGQYDsKcJ+vBxCRzJewe6IdT91oVLAvmBHQFhzWz9gR20/ObUdwP86JsBkVrxANwhnwEGjPr3crso/IlK0vzmnbL6w3RdAtPbDv+5e+j5yRTvAoX9FQKPvUr2kzgC/
lpc_rms=-25.01
offset=521
sample=Clarinet_staccato_FF_B3_RR2.opus
</region>

<region>
hivel=127
key=B4
lovel=1
lpc=Da+pQbxeMsISlwNC+xUpwSw8BEEKfQXBCF4tQKc+XsD2PLZAsdyWwOJvskDjP3TAc9nmPa/er79p7gVAGo9+vkKFRj9728W+/Qmavyu63r7wZP0+4ql3QKEaJsA77xc/
lpc_rms=-21.75
offset=694
sample=Clarinet_staccato_FF_B4_RR2.opus
</region>

<region>
hivel=127
key=B5
lovel=1
lpc=DT9SQlSAi8IcgXdCjRoOwk5i5EEAeM/BPYEJQqLk7cG2g55BN24MQHq/esBqe7S/9TFbQUcNFcElQ8BAbYRaQFwQuUBfrZXBxo4IQgaI1sHOXaVBlvJdwY1tsUHxFcnB
lpc_rms=-15.98
offset=313
sample=Clarinet_staccato_FF_B5_RR2.opus
</region>

<region>
hivel=127
key=C#4
lovel=1
lpc=y4YIQkigx8KCG9tC1Y9VwtpyQ0HUev+/UZSewFyvk0CgmGFAqn4sv9tnpMDA0EBAKFxgwMSjFr+a4TNBYwJHwRvhnEClLIU/df2EQJfoYcGjxg1BYSynQEY1+cBYDBBA
lpc_rms=-22.59
offset=876
sample=Clarinet_staccato_FF_C#4_RR2.opus
</region>

<region>
hivel=127
key=C#5
lovel=1
lpc=WrsRQSOxpMHjrJhBpp70wBeNE0AxeKXAUGLMQEb2XsCrblo/CwlSvvUDTD8YJwi/4JlRPnnsM77dlwA/ONuSvwNYnD5Ng7O7YnUTQK1yOsABTg1AJkZPwIWQokB8LDjA
lpc_rms=-24.17
offset=729
sample=Clarinet_staccato_FF_C#5_RR2.opus
</region>

<region>
hivel=127
key=C#6
lovel=1
lpc=HMyaQeMFncGMOxBBEtn7PvROikCjYbS/0I5PQItZJUDBiO0/qNVZQH38Q70+uyBAGz1UQAhZsD+ynShAiAQNP3NHMEBkvkxADSP2PzlH9r6vA31AqRGNP8TgNcHFIi9B
lpc_rms=-20.89
sample=Clarinet_staccato_FF_C#6_RR2.opus
</region>

<region>
hivel=127
key=C4
lovel=1
lpc=oczaQWuAj8J/4YlCGaLqwVsAtkBBUEFAWhbOwCDBJT8krtlAqUGQwOJBkr+L6Sg/miDwvoGbQkB0Q6zAWcT8P5bHCUBTha0+yorCPxNZqcCPlkW/Lp/IQEashMCuHKI/
lpc_rms=-28.43
offset=626
sample=Clarinet_staccato_FF_C4_RR2.opus
</region>

<region>
hivel=127
key=C5
lovel=1
lpc=pzAcQbebrcGPnLBBXlBCwWweAkCzCgRAz9Viv3ENUsBCZbdASGAYwFZME8DtsERAUOuYP/vXtcBbLY9ADgS2PZRePcBned4/AquyP42MH8BpVERAwuIVwBp55D/M4Ae/
lpc_rms=-23.86
offset=365
sample=Clarinet_staccato_FF_C5_RR2.opus
</region>

<region>
hivel=127
key=C6
lovel=1
lpc=Qlp7QVk4eMFNWT9BHl+EwAaSyECpb3HA2kiIQCNUpb8N6I9Aq7TivwgqOEDvYEE/rqhDPygHAED1kCS+/lyBQD58K8Bf3pBAY6EDwMcDvEDqKnjAXkOuQIoCvsDWEjW+
lpc_rms=-21.31
offset=4979
sample=Clarinet_staccato_FF_C6_RR2.opus
</region>

<region>
hivel=127
key=D#3
lovel=1
lpc=P+ZwQYu9B8L+ZctBnNvAwKu4pD9iK+O/j0tIwHnyO0CNzIpA3Z6DwAfZIL/+7gNAUB3Iv+8mPL/dYSc/ghDSP3aJdr+S8KC/XJolP3uNdj+x2B++6v6qvww9+D4vfdw+
lpc_rms=-29.31
offset=1122
sample=Clarinet_staccato_FF_D#3_RR2.opus
</region>

<region>
hivel=127
key=D#4
lovel=1
lpc=ygYIQlcX08Lk+QNDQ5irwqcC6kEYUd9AadDcwQJg9kF0BLLBX6ZnQY5f6MCWEUu/hLKLQOR+CsFayolBD9DHwXHezEFJZ4fBqqRgQSRsl8FtgrhA3yijQU2iwcGMDgdB
lpc_rms=-24.00
offset=907
sample=Clarinet_staccato_FF_D#4_RR2.opus
</region>

<region>
hivel=127
key=D#5
lovel=1
lpc=4/YuQT6Ct8Hah5NBAPwFwRdhAEHV5OLA4zG3vuoVKEDM+nRAr3SKwLWFJ78OlCNAJytLPXoqSMCRPlY/7cgmQE5Oij+XISDAO8c5wCCVtEDJYYu/1GWgP/KtxsAKEo1A
lpc_rms=-24.02
offset=464
sample=Clarinet_staccato_FF_D#5_RR2.opus
</region>

<region>
hikey=D3
hivel=127
lokey=C#3
lovel=1
lpc=DeFVQRJU8sEY5qhBgeDBvsRCSsCYfk3ApNw2QLux5z7Eqoo/De9Zv19cVMDVNk5ArW9OP4pOMcCmvr8/7devvkKeIz/PETO/QMGwvftiTz8QfOa7CVO/PiWFwr8MkDw/
lpc_rms=-28.76
offset=1126
pitch_keycenter=D3
sample=Clarinet_staccato_FF_D3_RR2.opus
</region>

<region>
hivel=127
key=D4
lovel=1
lpc=dpZAQnDD9MLsHOBCO38twuyIOEEfgpXAmE8ywTk4g0HvHRjAP2MewIA46MB3kaFAOXshQIHb/L+de/c/ySP1wPP6E0HSmqnAbLYIQekhfsHFTlhBwNE3wAgCD8BUlMA/
lpc_rms=-20.99
offset=667
sample=Clarinet_staccato_FF_D4_RR2.opus
</region>

<region>
hivel=127
key=D5
lovel=1
lpc=pYJPQTn3ysEteLFBz7E3wZF5/kBz/AHBS3qWQBmvOL+/82k+hsTnv3bClD+beek/XIkqwJMskD8e5Ze/SI24Pwkzpb8a5ihAZ732PqKejsAW5KpAMu0awOZAMkCfU+O/
lpc_rms=-21.89
offset=669
sample=Clarinet_staccato_FF_D5_RR2.opus
</region>

<region>
hikey=G7
hivel=127
lokey=D6
lovel=1
lpc=24D1QZYAGMIibGVBiXLBQOocvr+4jZM/7a4tQJZCMsD6d4JA8K2Fv0ajVT9EAiJAW/PNvyYV4j/224g+DuQ+QO5LH8BB0V5AqP1OwNpC2UDGFWzB15fzwOS03UF5nYbB
lpc_rms=-17.76
offset=823
pitch_keycenter=D6
sample=Clarinet_staccato_FF_D6_RR2.opus
</region>

<region>
hivel=127
key=E3
lovel=1
lpc=uYJaQVQnAMKifM9BffwDwYWakUBVVMvAylOMP82jPUCVdm8/6J4TwO8nL7962H8/QjxEPI3WuL/Fb6A/FRRJP32pHL2it9+/NYWCvCx+CUBwnhrAS5pnQHjtb8AlYbs/
lpc_rms=-26.43
offset=1775
sample=Clarinet_staccato_FF_E3_RR2.opus
</region>

<region>
hivel=127
key=E4
lovel=1
lpc=Wty4QSSkecLJCoBCgW/swRfqjEBDtZdANckmwSu6EkHsrRFAqtIjwXa0vUCwaqu/YF7SP8CFMcDo1JFAjteMwJpWAL9f5EpAokEGvwWjWT+jaT3Air0dQNsc3b+Mi4A/
lpc_rms=-27.37
offset=289
sample=Clarinet_staccato_FF_E4_RR2.opus
</region>

<region>
hivel=127
key=E5
lovel=1
lpc=zwp9QVd6AsK4QM1Bw44jwc79rUCykJHAP9C1QOEUAMEax/VAJ/6Qv7N7PL9z/I7AUA/UQBvYccBx2QNAndaDPtTD8T0m8LC/4O2MvyaXr0ALEFTAo1EWPVkcCMCwd1FA
lpc_rms=-19.69
offset=577
sample=Clarinet_staccato_FF_E5_RR2.opus
</region>

<region>
hivel=127
key=F#3
lovel=1
lpc=hwexQTzQb8K/8oBCfZUJwl+4IkF3e/G+R++6wJwjcD8HHBRB7L69wPGmOsAb3YpAv3gAwPHwlT+x72jA94+AQDW6uL5xOfq/FW+EQI4668DjtxhAdlwNQVMuNcEWvY9A
lpc_rms=-28.58
offset=1072
sample=Clarinet_staccato_FF_F#3_RR2.opus
</region>

<region>
hivel=127
key=F#4
lovel=1
lpc=vUpkQYOkD8JSbBBCrnGawU7oAUE2qmrA+tsov2YB5T+o/wxAqwx+wKkyDj8qk5o/P1lKv0kBGkDPXjzAE170v/funUCcUEK/9qEowBL1ij89EFs+2J6NPoz/wL4oWtg+
lpc_rms=-26.69
offset=304
sample=Clarinet_staccato_FF_F#4_RR2.opus
</region>

<region>
hivel=127
key=F#5
lovel=1
lpc=FSKiQdMVH8L18ApC6rhqwZImqEAnxrDAiJvfQBF22sDIzjVBDR/DwPK2McAJW4VA75onQLqeusBEZm9AOekQQK83kr+anfo//FRNwA5FUz8lslBAZoiyvwcak7+X4mJA
lpc_rms=-19.61
offset=440
sample=Clarinet_staccato_FF_F#5_RR2.opus
</region>

<region>
hivel=127
key=F3
lovel=1
lpc=OmBaQcQwBcLDM+dBy2UewXXaakA6NJ7AvVq9P4U+Xb4ZjGRAfUSwvx3HOcC38b8/0lxRP8nYTMDTWpZA8QMJwGVTGb6riMg+tKPnv1IzVEBBLPe/EB8Av2R+hT8t+vW+
lpc_rms=-29.94
offset=1577
sample=Clarinet_staccato_FF_F3_RR2.opus
</region>

<region>
hivel=127
key=F4
lovel=1
lpc=EaHOQbxofsKSQlJCKAoywTQUJMCYxovAvMLSP2/1ukAAvqW/N1S+wKaSJ0CKYdk/ZudXPwgipL9yVwXAYXSjPXKIwT+Q9xBAXZnXv17VbMAixLFAqvl1vqHLv8D8A4dA
lpc_rms=-23.97
offset=758
sample=Clarinet_staccato_FF_F4_RR2.opus
</region>

<region>
hivel=127
key=F5
lovel=1
lpc=MhpxQTk5BMJGMvpBc5x+waSUtEBby4HAqr4DQZlb7sCjuHtALt2rwJ8oFUGeNLfAf74Sv+Llvb5KgOpAg48SwdOgnkDq4u0/wT6uvwt2WMDJVaBAcDJCwGGveT8nSIQ/
lpc_rms=-19.75
offset=353
sample=Clarinet_staccato_FF_F5_RR2.opus
</region>

<region>
hivel=127
key=G#3
lovel=1
lpc=zqePQW7oT8K2J4NCaQhMwhQTB0IgTcfBFpWDQdUfH8G1S2RBDa6ZwbTDP0H8McS/LCXEv+BN1b3x60k+izypwKnib0EF8GnBA9C4QOaEt7/iQKg/Zp59P35Ha8DcsA1A
lpc_rms=-26.45
offset=1149
sample=Clarinet_staccato_FF_G#3_RR2.opus
</region>

<region>
hivel=127
key=G#4
lovel=1
lpc=OyjJQUyNVMIFdR9CHzdZwaocMkEm2FzB34PvQFpKhsD23gxAXq92QOIZnMCADgBAhl95wKeeK0ARubZAGMqTwPds3sDGGAlB0n8cwCCBCEAi4D6/Doq0vytbkcAE6MRA
lpc_rms=-23.30
offset=210
sample=Clarinet_staccato_FF_G#4_RR2.opus
</region>

<region>
hivel=127
key=G#5
lovel=1
lpc=fTaIQr6y3MIMrYFCqPROwfKLgEERHAbBBt4LQVAOT8EePwdBgT0RQImnL0HVY2zAnUqJwDqkE7+XPUxBBidwwHqxOr+DAotAAI8QQWXWpMAJQs3AhuzgQGU/Z0FTyOzA
lpc_rms=-15.27
offset=2614
sample=Clarinet_staccato_FF_G#5_RR2.opus
</region>

<region>
hivel=127
key=G3
lovel=1
lpc=tqDcQR1oo8KihcVCk2iBwhVr40Gj0jHB4BKuP5siCUA6EJ1AXX3YwCIik8CJ6iBBKpajwF6HEUDraci/o4jvv90qxD8hRN0/aLKuP0A4X8DlZ4u/44edP2RnOUBOVAPA
lpc_rms=-28.67
offset=695
sample=Clarinet_staccato_FF_G3_RR2.opus
</region>

<region>
hivel=127
key=G4
lovel=1
lpc=LeMhQgYDzcI2trNCFk7FwVuLaUDwQDXBz1cpwEdnJkEAcmtAh7yqvudeOsHGg4hAMgvLP9Zfnr++L4tA4wvCwIBUEUEPUzDBkU7uQLqc7MCxaiRBWmKKv5uwQMFQhAxB
lpc_rms=-22.59
offset=500
sample=Clarinet_staccato_FF_G4_RR2.opus
</region>

<region>
hivel=127
key=G5
lovel=1
lpc=YqLIQU+ZJMKe/vhByw00wehusUAOa8s+x/tlP6+mecCB6M5AlYuCwAqUHkHZeLjArSYZwL99GEHOxerAOGAVQdIg3sAl3GhAn6uDP4E6yL6hEexAUnZtwGAussDDABlB
lpc_rms=-21.98
offset=513
sample=Clarinet_staccato_FF_G5_RR2.opus
</region>
</group>